<?xml version="1.0" encoding="UTF-8"?>
<svg width="64px" height="64px" viewBox="0 0 64 64" version="1.1" xmlns="http://www.w3.org/2000/svg" xmlns:xlink="http://www.w3.org/1999/xlink">
    <!-- Generator: Sketch 63.1 (92452) - https://sketch.com -->
    <title>ikony/aparat</title>
    <desc>Created with Sketch.</desc>
    <defs>
        <polygon id="path-1" points="0 0.0001 35.922 0.0001 35.922 64 0 64"></polygon>
    </defs>
    <g id="ikony/aparat" stroke="none" stroke-width="1" fill="none" fill-rule="evenodd">
        <g id="Group-6" transform="translate(14.000000, 0.000000)">
            <g id="Group-3">
                <mask id="mask-2" fill="white">
                    <use xlink:href="#path-1"></use>
                </mask>
                <g id="Clip-2"></g>
                <path d="M33.5554,57.4111 L33.4224,57.4111 L33.4224,58.3321 C33.4224,60.0791 32.0004,61.5001 30.2544,61.5001 L5.6674,61.5001 C3.9214,61.5001 2.4994,60.0791 2.4994,58.3321 L2.4994,56.2521 L2.5554,56.2521 L2.5554,53.7521 L2.4994,53.7521 L2.4994,5.6681 C2.4994,3.9221 3.9214,2.5001 5.6674,2.5001 L30.2544,2.5001 C32.0004,2.5001 33.4224,3.9221 33.4224,5.6681 L33.5554,57.4111 Z M30.2544,0.0001 L5.6674,0.0001 C2.5424,0.0001 -0.0006,2.5421 -0.0006,5.6681 L-0.0006,58.3321 C-0.0006,61.4581 2.5424,64.0001 5.6674,64.0001 L30.2544,64.0001 C33.3794,64.0001 35.9224,61.4581 35.9224,58.3321 L35.9224,5.6681 C35.9224,2.5421 33.3794,0.0001 30.2544,0.0001 L30.2544,0.0001 Z" id="Fill-1" fill="#10418F" mask="url(#mask-2)"></path>
            </g>
            <path d="M8.5554,6.4111 C7.4524,6.4111 6.5554,7.3081 6.5554,8.4111 C6.5554,9.5141 7.4524,10.4111 8.5554,10.4111 C9.6584,10.4111 10.5554,9.5141 10.5554,8.4111 C10.5554,7.3081 9.6584,6.4111 8.5554,6.4111 M8.5554,12.4111 C6.3494,12.4111 4.5554,10.6171 4.5554,8.4111 C4.5554,6.2051 6.3494,4.4111 8.5554,4.4111 C10.7614,4.4111 12.5554,6.2051 12.5554,8.4111 C12.5554,10.6171 10.7614,12.4111 8.5554,12.4111" id="Fill-4" fill="#FFC02B"></path>
        </g>
    </g>
</svg>