<?xml version="1.0" encoding="UTF-8"?>
<svg width="64px" height="64px" viewBox="0 0 64 64" version="1.1" xmlns="http://www.w3.org/2000/svg" xmlns:xlink="http://www.w3.org/1999/xlink">
    <!-- Generator: Sketch 63.1 (92452) - https://sketch.com -->
    <title>ikony/certyfikat</title>
    <desc>Created with Sketch.</desc>
    <g id="ikony/certyfikat" stroke="none" stroke-width="1" fill="none" fill-rule="evenodd">
        <path d="M25.8588868,0.736816375 C26.5283203,0.565918 27.2084961,0.9697265 27.3793945,1.63867188 C27.5498048,2.30761725 27.1459961,2.98828125 26.4770508,3.15917975 C17.0698243,5.56054688 10.5,14.027832 10.5,23.75 C10.5,35.574707 20.1015625,45 31.75,45 C43.3901368,45 53,35.5825195 53,23.75 C53,14.027832 46.4296875,5.56054688 37.022461,3.15917975 C36.3535156,2.98828125 35.949707,2.30761725 36.1206055,1.63867188 C36.2915039,0.9697265 36.9716798,0.565918 37.6411133,0.736816375 C48.1557618,3.4208985 55.4995118,12.8842774 55.4995118,23.75 C55.4995118,30.4985351 52.6621094,36.8574219 47.6811524,41.3608399 L47.6811524,41.3608399 L55.211914,54.6328125 C55.4541015,55.0600586 55.4243164,55.5893555 55.1347656,55.9858399 C54.8457031,56.3823243 54.3510743,56.5732423 53.8706055,56.4736328 L53.8706055,56.4736328 L45.3183594,54.6977539 L42.3129883,63.1679688 C42.149414,63.628418 41.7319336,63.9516601 41.2446289,63.9951173 C41.2080078,63.9980469 41.1708985,64.0000646 41.1342774,64.0000646 C40.6879883,64.0000646 40.2719726,63.7607423 40.0483399,63.3676758 L40.0483399,63.3676758 L31.75,48.777832 L23.4511719,63.3676758 C23.2094726,63.7929688 22.7421875,64.0385743 22.2548828,63.9951173 C21.7675781,63.9516601 21.3500976,63.6289063 21.1870118,63.1679688 L21.1870118,63.1679688 L18.1811524,54.6977539 L9.62890625,56.4736328 C9.14794925,56.5737305 8.65380863,56.3828125 8.36474613,55.9858399 C8.07568363,55.5893555 8.04541013,55.0600586 8.28759763,54.6328125 L8.28759763,54.6328125 L15.8183594,41.3608399 C10.8374024,36.8574219 8,30.4985351 8,23.75 C8,12.8842774 15.34375,3.4208985 25.8588868,0.736816375 Z M17.7851563,42.9604493 L11.8251953,53.4643555 L18.7407226,52.0283203 C19.352539,51.9013673 19.9638673,52.2456055 20.1728515,52.8344726 L20.1728515,52.8344726 L22.6293945,59.756836 L29.6538086,47.4067383 C25.375,47.0258789 21.2602539,45.4868164 17.7851563,42.9604493 L17.7851563,42.9604493 Z M45.7148438,42.9604493 C42.2392578,45.4868164 38.125,47.0258789 33.8457031,47.4067383 L33.8457031,47.4067383 L40.8706055,59.756836 L43.3266601,52.8344726 C43.5356445,52.2456055 44.147461,51.9013673 44.758789,52.0283203 L44.758789,52.0283203 L51.6748048,53.4643555 Z M31.75,5 C42.0888673,5 50.5,13.4111328 50.5,23.75 C50.5,34.0888672 42.0888673,42.5 31.75,42.5 C21.4111328,42.5 13,34.0888672 13,23.75 C13,13.4111328 21.4111328,5 31.75,5 Z M31.75,7.5 C22.7895508,7.5 15.5,14.7895508 15.5,23.75 C15.5,32.7104492 22.7895508,40 31.75,40 C40.7104493,40 48,32.7104492 48,23.75 C48,14.7895508 40.7104493,7.5 31.75,7.5 Z M31.75,11.6074219 C32.2231445,11.6074219 32.65625,11.875 32.8676758,12.2983399 L32.8676758,12.2983399 L35.9101563,18.3828125 L42.6342774,19.3950195 C43.102539,19.4658202 43.4907226,19.7944336 43.637207,20.2446289 C43.7836914,20.6953125 43.663086,21.1894531 43.3256836,21.5214844 L43.3256836,21.5214844 L38.4804688,26.2954101 L39.5952149,33.0048827 C39.6728515,33.472168 39.4799805,33.9428711 39.0966798,34.2211914 C38.7104493,34.5019531 38.203125,34.5356445 37.7861328,34.319336 L37.7861328,34.319336 L31.75,31.1845702 L25.7133789,34.319336 C25.2929688,34.5371094 24.7856445,34.4995117 24.402832,34.2211914 C24.0195313,33.9428711 23.8266601,33.472168 23.9042969,33.0048827 L23.9042969,33.0048827 L25.019043,26.2954101 L20.1738281,21.5214844 C19.836914,21.1894531 19.7158203,20.6953125 19.8623048,20.2446289 C20.008789,19.7944336 20.3969726,19.465332 20.8652344,19.3950195 L20.8652344,19.3950195 L27.5893555,18.3828125 L30.631836,12.2983399 C30.84375,11.875 31.2763673,11.6074219 31.75,11.6074219 Z M31.75,15.6523437 L29.5356445,20.081543 C29.3535156,20.4453125 29.0058594,20.6977539 28.6035156,20.7583007 L28.6035156,20.7583007 L23.7094726,21.4951172 L27.2358399,24.9692382 C27.5258789,25.2548827 27.6586914,25.6635742 27.5917969,26.0649414 L27.5917969,26.0649414 L26.7802735,30.9482422 L31.1738281,28.6669922 C31.3544923,28.5732422 31.5522461,28.5263672 31.75,28.5263672 C31.9477539,28.5263672 32.1455078,28.5732422 32.3256836,28.6669922 L32.3256836,28.6669922 L36.7192383,30.9482422 L35.9077149,26.0649414 C35.8413086,25.6635742 35.9741211,25.2548827 36.2636719,24.9692382 L36.2636719,24.9692382 L39.7905274,21.4951172 L34.8964844,20.7583007 C34.4941406,20.6977539 34.1464844,20.4453125 33.9643555,20.081543 L33.9643555,20.081543 L31.75,15.6523437 Z M31.75,0 C32.4404298,0 33,0.55957025 33,1.25 C33,1.94042975 32.4404298,2.5 31.75,2.5 C31.0595703,2.5 30.5,1.94042975 30.5,1.25 C30.5,0.55957025 31.0595703,0 31.75,0 Z" id="Combined-Shape" fill="#10418F"></path>
    </g>
</svg>