<?xml version="1.0" encoding="UTF-8"?>
<svg width="64px" height="64px" viewBox="0 0 64 64" version="1.1" xmlns="http://www.w3.org/2000/svg" xmlns:xlink="http://www.w3.org/1999/xlink">
    <!-- Generator: Sketch 63.1 (92452) - https://sketch.com -->
    <title>ikony/dom</title>
    <desc>Created with Sketch.</desc>
    <g id="ikony/dom" stroke="none" stroke-width="1" fill="none" fill-rule="evenodd">
        <path d="M31.116125,0.36625 C31.6045,-0.121875 32.39575,-0.121875 32.884,0.36625 L32.884,0.36625 L63.634,31.11625 C63.991375,31.47375 64.0985,32.0115 63.905,32.4785 C63.7115,32.9455 63.25575,33.250125 62.750125,33.250125 L62.750125,33.250125 L57.250125,33.250125 L57.250125,42.625125 C57.250125,43.3155 56.690375,43.875125 56.000125,43.875125 C55.309875,43.875125 54.750125,43.3155 54.750125,42.625125 L54.750125,42.625125 L54.750125,33.250125 L54.269125,33.250125 C53.937625,33.250125 53.61975,33.118375 53.38525,32.884 L53.38525,32.884 L32.000125,11.498875 L10.615,32.884 C10.3805,33.118375 10.062625,33.250125 9.731125,33.250125 L9.731125,33.250125 L9.250125,33.250125 L9.250125,61.50025 L24.250125,61.50025 L24.250125,37.75025 C24.250125,37.059875 24.809875,36.50025 25.500125,36.50025 L25.500125,36.50025 L38.500125,36.50025 C39.190375,36.50025 39.750125,37.059875 39.750125,37.75025 L39.750125,37.75025 L39.750125,61.50025 L54.750125,61.50025 L54.750125,51.62525 C54.750125,50.934875 55.309875,50.37525 56.000125,50.37525 C56.690375,50.37525 57.250125,50.934875 57.250125,51.62525 L57.250125,51.62525 L57.250125,61.50025 L62.750125,61.50025 C63.440375,61.50025 64.000162,62.05975 64.000162,62.750125 C64.000162,63.4405 63.440375,64.000125 62.750125,64.000125 L62.750125,64.000125 L1.250125,64.000125 C0.559875,64.000125 -3.70070104e-05,63.4405 -3.70070104e-05,62.750125 C-3.70070104e-05,62.05975 0.559875,61.500125 1.250125,61.500125 L1.250125,61.500125 L6.750125,61.500125 L6.750125,33.250125 L1.250125,33.250125 C0.7445,33.250125 0.288625,32.945625 0.095125,32.4785 C-0.098375,32.011375 0.00875,31.47375 0.366125,31.11625 L0.366125,31.11625 L12.366125,19.11625 C12.854375,18.628125 13.645875,18.62825 14.134,19.11625 C14.622125,19.6045 14.622125,20.396 14.134,20.884125 L14.134,20.884125 L4.267875,30.750125 L9.21325,30.750125 L31.116125,8.84725 C31.6045,8.359125 32.39575,8.359125 32.884,8.84725 L32.884,8.84725 L54.786875,30.750125 L59.73225,30.750125 L32.000125,3.017875 L21.134,13.884 C20.645875,14.37225 19.854375,14.37225 19.366125,13.884 C18.878,13.395875 18.878,12.604375 19.366125,12.11625 L19.366125,12.11625 Z M37.250125,39.00025 L26.750125,39.00025 L26.750125,61.50025 L37.250125,61.50025 L37.250125,39.00025 Z M50.750125,36.50025 C51.440375,36.50025 52.000125,37.059875 52.000125,37.75025 L52.000125,37.75025 L52.000125,50.25025 C52.000125,50.940625 51.440375,51.50025 50.750125,51.50025 L50.750125,51.50025 L43.750125,51.50025 C43.059875,51.50025 42.500125,50.940625 42.500125,50.25025 L42.500125,50.25025 L42.500125,37.75025 C42.500125,37.059875 43.059875,36.50025 43.750125,36.50025 L43.750125,36.50025 Z M20.250125,36.50025 C20.940375,36.50025 21.500125,37.059875 21.500125,37.75025 L21.500125,37.75025 L21.500125,50.25025 C21.500125,50.940625 20.940375,51.50025 20.250125,51.50025 L20.250125,51.50025 L13.250125,51.50025 C12.559875,51.50025 12.000125,50.940625 12.000125,50.25025 L12.000125,50.25025 L12.000125,37.75025 C12.000125,37.059875 12.559875,36.50025 13.250125,36.50025 L13.250125,36.50025 Z M29.625125,49.00025 C29.95375,49.00025 30.276375,49.134 30.50875,49.3665 C30.741375,49.599 30.875125,49.9215 30.875125,50.25025 C30.875125,50.579 30.74125,50.9015 30.50875,51.134 C30.276375,51.3665 29.953875,51.50025 29.625125,51.50025 C29.296375,51.50025 28.974,51.3665 28.741375,51.134 C28.50875,50.9015 28.375125,50.579 28.375125,50.25025 C28.375125,49.9215 28.508875,49.599 28.741375,49.3665 C28.973875,49.134 29.296375,49.00025 29.625125,49.00025 Z M49.500125,39.00025 L45.000125,39.00025 L45.000125,49.00025 L49.500125,49.00025 L49.500125,39.00025 Z M19.000125,39.00025 L14.500125,39.00025 L14.500125,49.00025 L19.000125,49.00025 L19.000125,39.00025 Z M56.000125,45.541375 C56.32875,45.541375 56.651375,45.67525 56.88375,45.907625 C57.116375,46.140125 57.250125,46.462625 57.250125,46.791375 C57.250125,47.121375 57.11625,47.442625 56.88375,47.676375 C56.651375,47.908875 56.328875,48.041375 56.000125,48.041375 C55.671375,48.041375 55.348875,47.908875 55.116375,47.676375 C54.88375,47.442625 54.750125,47.120125 54.750125,46.791375 C54.750125,46.462625 54.883875,46.141375 55.116375,45.907625 C55.348875,45.675125 55.671375,45.541375 56.000125,45.541375 Z M32.000125,20.54025 C35.170625,20.54025 37.750125,23.11975 37.750125,26.29025 C37.750125,29.46075 35.170625,32.04025 32.000125,32.04025 C28.829625,32.04025 26.250125,29.46075 26.250125,26.29025 C26.250125,23.11975 28.829625,20.54025 32.000125,20.54025 Z M32.000125,23.04025 C30.208,23.04025 28.750125,24.49825 28.750125,26.29025 C28.750125,28.08225 30.208,29.54025 32.000125,29.54025 C33.79225,29.54025 35.250125,28.08225 35.250125,26.29025 C35.250125,24.49825 33.79225,23.04025 32.000125,23.04025 Z M16.625125,15.37525 C16.953875,15.37525 17.276375,15.509 17.50875,15.7415 C17.741375,15.974 17.875125,16.2965 17.875125,16.62525 C17.875125,16.954 17.74125,17.2765 17.50875,17.509 C17.276375,17.7415 16.953875,17.87525 16.625125,17.87525 C16.296375,17.87525 15.974,17.7415 15.741375,17.509 C15.50875,17.2765 15.375125,16.954 15.375125,16.62525 C15.375125,16.2965 15.508875,15.974 15.741375,15.7415 C15.973875,15.509 16.296375,15.37525 16.625125,15.37525 Z" id="Combined-Shape" fill="#10418F"></path>
    </g>
</svg>