<?xml version="1.0" encoding="UTF-8"?>
<svg width="64px" height="64px" viewBox="0 0 64 64" version="1.1" xmlns="http://www.w3.org/2000/svg" xmlns:xlink="http://www.w3.org/1999/xlink">
    <!-- Generator: Sketch 63.1 (92452) - https://sketch.com -->
    <title>ikony/door2door</title>
    <desc>Created with Sketch.</desc>
    <g id="ikony/door2door" stroke="none" stroke-width="1" fill="none" fill-rule="evenodd">
        <path d="M59.5750255,9.12827833 C60.0806505,9.12827833 60.5362755,9.43290333 60.7297755,9.89977833 C60.9054573,10.3243238 60.8331019,10.8071337 60.5499933,11.1600037 L60.4587755,11.2617783 L58.1527755,13.5677783 C62.3730255,19.5446533 64.4169005,26.8309033 63.9167755,34.1836533 C63.3921505,41.8940283 60.0904005,49.1534033 54.6195255,54.6244033 C49.9976505,59.2462783 44.1684005,62.3065283 37.7614005,63.4746533 C35.8357755,63.8256533 33.8972755,64.0001533 31.9679005,64.0001533 C27.6277755,64.0001533 23.3302755,63.1179033 19.3024005,61.3791533 C18.6686505,61.1055283 18.3767755,60.3700283 18.6504005,59.7362783 C18.9239005,59.1025283 19.6595255,58.8107783 20.2932755,59.0842783 C31.4656505,63.9075283 44.2457755,61.4629033 52.8520255,52.8567783 C62.7540437,42.9550075 64.243721,27.2703719 56.6011561,15.7269202 L56.3567755,15.3637783 L54.2511505,17.4694033 C54.0120255,17.7085283 53.6925255,17.8355283 53.3671505,17.8355283 C53.2062755,17.8355283 53.0437755,17.8044033 52.8891505,17.7404033 C52.4647186,17.5644942 52.1743777,17.1718496 52.1250962,16.7221238 L52.1176505,16.5856533 L52.1176505,10.3781533 C52.1176505,9.73104395 52.6096182,9.19874171 53.2397597,9.1347317 L53.3675255,9.12827833 L59.5750255,9.12827833 Z M16.5272834,57.1318159 L16.6474005,57.1964033 L16.6961505,57.2261533 C17.2856505,57.5852783 17.4724005,58.3541533 17.1136505,58.9437783 C16.8781505,59.3302783 16.4666505,59.5436533 16.0449005,59.5436533 C15.8678005,59.5436533 15.6887805,59.5059733 15.5203205,59.4276053 L15.3961505,59.3611533 L15.3474005,59.3314033 C14.7577755,58.9722783 14.5709005,58.2034033 14.9299005,57.6139033 C15.2650838,57.06347 15.9572049,56.8639855 16.5272834,57.1318159 Z M33.2868103,9.13554166 L33.4742755,9.23127833 L51.6700255,19.3127783 C52.5829666,19.8186607 53.1703715,20.7543839 53.236319,21.7870906 L53.2425255,21.9817783 L53.2425255,42.0181533 C53.2425255,43.0618004 52.708823,44.0290461 51.8373392,44.5873457 L51.6700255,44.6871533 L33.4742755,54.7685283 C33.0112755,55.0250283 32.5032755,55.1532783 31.9955255,55.1532783 C31.560204,55.1532783 31.1248826,55.0591457 30.7178994,54.8706442 L30.5169005,54.7685283 L12.3210255,44.6870283 C11.4080843,44.1812636 10.8206794,43.2455474 10.754732,42.2127369 L10.7485255,42.0180283 L10.7485255,21.9816533 C10.7485255,20.9380063 11.2822279,19.9707606 12.1537117,19.412461 L12.3210255,19.3126533 L30.5169005,9.23140333 C31.3810505,8.75259499 32.4017827,8.72068277 33.2868103,9.13554166 Z M26.1925255,0.532153327 C32.4350255,-0.613346673 38.8067755,0.0984033266 44.6185255,2.59077833 C45.2530255,2.86290333 45.5466505,3.59777833 45.2745255,4.23202833 C45.0024005,4.86627833 44.2675255,5.16015333 43.6332755,4.88802833 C32.4775255,0.103528327 19.7227755,2.55902833 11.1387755,11.1431533 C1.13265047,21.1492783 -0.283349532,37.0605283 7.63415047,48.6362783 L7.63415047,48.6362783 L9.73990047,46.5305283 C10.0972755,46.1731533 10.6349005,46.0662783 11.1020255,46.2595283 C11.5689005,46.4530283 11.8735255,46.9087783 11.8734005,47.4142783 L11.8734005,47.4142783 L11.8734005,53.6217783 C11.8734005,54.3120283 11.3136505,54.8716533 10.6235255,54.8716533 L10.6235255,54.8716533 L4.41602547,54.8716533 C3.91040047,54.8716533 3.45477547,54.5670283 3.26127547,54.1001533 C3.06802547,53.6331533 3.17490047,53.0956533 3.53227547,52.7381533 L3.53227547,52.7381533 L5.83827547,50.4321533 C1.61802547,44.4552783 -0.425849532,37.1689033 0.0740254678,29.8164033 C0.598525468,22.1060283 3.90027547,14.8466533 9.37127547,9.37565333 C13.9836505,4.76327833 19.8001505,1.70540333 26.1925255,0.532153327 Z M9.37352547,50.4319033 L7.43340047,52.3721533 L9.37352547,52.3721533 L9.37352547,50.4319033 Z M13.2481505,23.0494033 L13.2481505,42.0181533 C13.2481505,42.1852367 13.3238449,42.3414693 13.4506389,42.4450399 L13.5326505,42.5005283 L30.7459005,52.0375283 L30.7459005,32.9971533 L21.3750255,27.6696533 L21.3690255,27.6662783 L13.2481505,23.0494033 Z M50.7427756,23.3119033 L33.2451505,33.0065283 L33.2451505,52.0376533 L50.4584005,42.5007783 C50.6046505,42.4197367 50.7046332,42.2778443 50.7338983,42.1166956 L50.7427756,42.0180283 L50.7427756,23.3119033 Z M25.0030965,43.140755 L25.1259005,43.2000283 L28.4371505,45.0237783 C29.0419005,45.3567783 29.2620255,46.1169033 28.9290255,46.7215283 C28.7011505,47.1349033 28.2737755,47.3686533 27.8330255,47.3686533 C27.6700255,47.3686533 27.5051055,47.3367333 27.3477375,47.2700133 L27.2312755,47.2134033 L23.9200255,45.3896533 C23.3154005,45.0565283 23.0951505,44.2965283 23.4281505,43.6919033 C23.7389505,43.1275867 24.4219327,42.8981033 25.0030965,43.140755 Z M16.4687784,28.0995813 L16.6006505,28.1624033 L23.2234005,31.8097783 C23.582613,32.0075533 23.8192117,32.3671258 23.8628483,32.7692132 L23.8701505,32.9046533 L23.8701505,38.1882783 C23.8701505,38.6302783 23.6367755,39.0394033 23.2561505,39.2641533 C23.0604005,39.3799033 22.8405255,39.4380283 22.6204005,39.4380283 C22.4648692,39.4380283 22.3091973,39.4089893 22.1618223,39.3508584 L22.0175255,39.2830283 L15.3947755,35.6356533 C15.0356755,35.4377658 14.7989867,35.0781821 14.75524,34.6761847 L14.7479005,34.5407783 L14.7479005,29.2571533 C14.7479005,28.8151533 14.9812755,28.4060283 15.3619005,28.1811533 C15.7003449,27.9813755 16.110098,27.9537459 16.4687784,28.0995813 Z M17.2476505,31.3725283 L17.2476505,33.8024033 L21.3706505,36.0730283 L21.3706505,33.6432783 L17.2476505,31.3725283 Z M42.1075255,16.8722783 L24.5505255,26.5997783 L32.0036505,30.8369033 L49.6579005,21.0554033 L42.1075255,16.8722783 Z M31.8143785,11.3790457 L31.7282755,11.4177783 L14.5687755,20.9250283 L22.0047755,25.1525283 L39.5285255,15.4434033 L32.2627755,11.4177783 C32.1235046,11.3404867 31.9614039,11.3274311 31.8143785,11.3790457 Z M56.5576505,11.6277783 L54.6174005,11.6277783 L54.6174005,13.5680283 L56.5576505,11.6277783 Z M48.6324502,4.66988007 L48.7522755,4.73502833 L48.8141505,4.77327833 C49.4019005,5.13502833 49.5852755,5.90477833 49.2235255,6.49290333 C48.9875255,6.87652833 48.5775255,7.08777833 48.1579005,7.08777833 C47.9792005,7.08777833 47.7988205,7.04953833 47.6291765,6.96985833 L47.5041505,6.90227833 L47.4422755,6.86402833 C46.8544005,6.50215333 46.6709005,5.73240333 47.0327755,5.14440333 C47.3705255,4.59560333 48.0635799,4.39938555 48.6324502,4.66988007 Z" id="Combined-Shape" fill="#10418F"></path>
    </g>
</svg>