<?xml version="1.0" encoding="UTF-8"?>
<svg width="1142px" height="317px" viewBox="0 0 1142 317" version="1.1" xmlns="http://www.w3.org/2000/svg" xmlns:xlink="http://www.w3.org/1999/xlink">
    <!-- Generator: sketchtool 63.1 (101010) - https://sketch.com -->
    <title>8981D77D-55C9-4DCC-8DD1-38FE1D9100A6</title>
    <desc>Created with sketchtool.</desc>
    <g id="Page-1" stroke="none" stroke-width="1" fill="none" fill-rule="evenodd">
        <g id="Artboard" transform="translate(-389.000000, -4438.000000)">
            <g id="Group-24" transform="translate(390.000000, 4234.000000)">
                <g id="Group-7">
                    <g id="Group-17" transform="translate(0.000000, 204.000000)">
                        <path d="M173,8 L1063.70216,8 C1105.84029,8 1140,42.1597074 1140,84.2978419 C1140,126.435976 1105.84029,160.595684 1063.70216,160.595684 L74.2021581,160.595684 C33.2214378,160.595684 -5.0186908e-15,193.817122 0,234.797842 C2.32177865e-14,275.778562 33.2214378,309 74.2021581,309 L967,309 L967,309" id="Path" stroke="#10418F" stroke-width="2" stroke-dasharray="7"></path>
                        <g id="Oval-Copy-14" transform="translate(172.000000, 0.000000)">
                            <circle stroke="#10418F" stroke-width="2" fill="#FFFFFF" cx="8" cy="8" r="7"></circle>
                            <circle id="Oval-Copy-15" fill="#FFC02B" cx="8" cy="8" r="3"></circle>
                        </g>
                        <g id="Oval-Copy-17" transform="translate(165.000000, 301.000000)">
                            <circle id="Oval-Copy-14" stroke="#10418F" stroke-width="2" fill="#FFFFFF" cx="8" cy="8" r="7"></circle>
                            <circle id="Oval-Copy-15" fill="#FFC02B" cx="8" cy="8" r="3"></circle>
                        </g>
                        <g id="Oval-Copy-15" transform="translate(562.000000, 0.000000)">
                            <circle id="Oval-Copy-14" stroke="#10418F" stroke-width="2" fill="#FFFFFF" cx="8" cy="8" r="7"></circle>
                            <circle fill="#FFC02B" cx="8" cy="8" r="3"></circle>
                        </g>
                        <g id="Oval-Copy-18" transform="translate(562.000000, 301.000000)">
                            <circle id="Oval-Copy-14" stroke="#10418F" stroke-width="2" fill="#FFFFFF" cx="8" cy="8" r="7"></circle>
                            <circle id="Oval-Copy-15" fill="#FFC02B" cx="8" cy="8" r="3"></circle>
                        </g>
                        <g id="Oval-Copy-16" transform="translate(952.000000, 0.000000)">
                            <circle id="Oval-Copy-14" stroke="#10418F" stroke-width="2" fill="#FFFFFF" cx="8" cy="8" r="7"></circle>
                            <circle id="Oval-Copy-15" fill="#FFC02B" cx="8" cy="8" r="3"></circle>
                        </g>
                        <g id="Oval-Copy-19" transform="translate(959.000000, 301.000000)">
                            <circle id="Oval-Copy-14" stroke="#10418F" stroke-width="2" fill="#FFFFFF" cx="8" cy="8" r="7"></circle>
                            <circle id="Oval-Copy-15" fill="#FFC02B" cx="8" cy="8" r="3"></circle>
                        </g>
                    </g>
                </g>
            </g>
        </g>
    </g>
</svg>