<?xml version="1.0" encoding="UTF-8"?>
<svg width="64px" height="64px" viewBox="0 0 64 64" version="1.1" xmlns="http://www.w3.org/2000/svg" xmlns:xlink="http://www.w3.org/1999/xlink">
    <!-- Generator: Sketch 63.1 (92452) - https://sketch.com -->
    <title>ikony/koszta</title>
    <desc>Created with Sketch.</desc>
    <g id="ikony/koszta" stroke="none" stroke-width="1" fill="none" fill-rule="evenodd">
        <path d="M32.646125,2.16045355 C36.192,-0.722296448 41.322875,-0.718421448 44.855375,2.16170355 C45.3165,2.53670355 45.97425,2.58882855 46.4905,2.28982855 C48.04075,1.39270355 49.882375,1.60895355 51.18225,2.84107855 C52.482,4.07307855 52.796625,5.90045355 51.983625,7.49632855 L51.983625,7.49632855 L48.278625,14.7692036 L55.674375,24.0155786 C61.04325,30.7279536 63.999875,39.1585786 63.999875,47.7538286 C63.999875,56.7053286 56.71725,63.9879536 47.76575,63.9879536 L47.76575,63.9879536 L29.76575,63.9879536 C26.91725,63.9879536 24.1145,63.2393286 21.66075,61.8229536 C19.510125,60.5815786 17.66475,58.8518286 16.2815,56.7930786 C16.05,56.9030786 15.81625,57.0130786 15.577875,57.1230786 C15.41175,57.1997036 15.232875,57.2380786 15.054125,57.2380786 C14.875375,57.2380786 14.6965,57.1997036 14.530375,57.1230786 C8.2355,54.2178286 4.321375,51.3317036 2.2125,48.0404536 C0.29425,45.0464536 0.07575,42.0818286 -9.9475983e-14,38.7947036 L-9.9475983e-14,38.7947036 L-9.9475983e-14,28.3797036 C-9.9475983e-14,27.8915786 0.284125,27.4480786 0.727625,27.2440786 L0.727625,27.2440786 L14.531875,20.8940786 C14.863375,20.7414536 15.245,20.7414536 15.5765,20.8940786 L15.5765,20.8940786 L29.38075,27.2440786 C29.82425,27.4480786 30.108375,27.8915786 30.108375,28.3797036 L30.108375,28.3797036 L30.1082812,38.7803442 L30.1082812,38.7803442 L30.108,38.7947036 C30.03275,42.0818286 29.81425,45.0464536 27.895875,48.0404536 C26.139625,50.7813286 23.13,53.2412036 18.5375,55.6652036 C21.112125,59.3287036 25.239875,61.4880786 29.765875,61.4880786 L29.765875,61.4880786 L47.765875,61.4880786 C55.338875,61.4880786 61.5,55.3269536 61.5,47.7539536 C61.5,39.7239536 58.737625,31.8479536 53.721875,25.5769536 L53.721875,25.5769536 L47.40625,17.6808286 L47.40625,28.6754536 C47.40625,29.3657036 46.8465,29.9254536 46.15625,29.9254536 C45.466,29.9254536 44.90625,29.3657036 44.90625,28.6754536 L44.90625,28.6754536 L44.90625,16.1884536 L43,16.1884536 L43,19.6963286 C43,20.3865786 42.44025,20.9463286 41.75,20.9463286 C41.05975,20.9463286 40.5,20.3865786 40.5,19.6963286 L40.5,19.6963286 L40.5,16.1884536 L31.31925,16.1884536 L26.8785,21.7404536 C26.447125,22.2794536 25.66075,22.3670786 25.1215,21.9358286 C24.582375,21.5044536 24.495,20.7179536 24.926125,20.1788286 L24.926125,20.1788286 L29.23375,14.7933286 L25.516375,7.49632855 C24.703375,5.90057855 25.018,4.07307855 26.31775,2.84107855 C27.617625,1.60882855 29.45925,1.39257855 31.009375,2.28970355 C31.525625,2.58882855 32.18325,2.53682855 32.646125,2.16045355 Z M15.05425,23.4057036 L2.5,29.1807036 L2.5,38.7519536 C2.623375,44.1370786 2.741375,48.7998286 15.05425,54.6087036 C27.367125,48.7998286 27.485,44.1370786 27.6085,38.7519536 L27.6085,38.7519536 L27.6085,29.1807036 L15.05425,23.4057036 Z M38.770125,31.9792036 C39.460375,31.9792036 40.020125,32.5389536 40.020125,33.2292036 L40.020125,33.2292036 L40.020125,33.3545786 C42.59075,33.8855786 44.519,36.0168286 44.519,38.5592036 C44.519,39.2494536 43.95925,39.8092036 43.269,39.8092036 C42.57875,39.8092036 42.019,39.2494536 42.019,38.5592036 C42.019,36.9970786 40.561625,35.7260786 38.770125,35.7260786 C36.978625,35.7260786 35.521125,36.9970786 35.521125,38.5592036 C35.521125,40.1213286 36.978625,41.3922036 38.770125,41.3922036 C41.94,41.3922036 44.519,43.7847036 44.519,46.7253286 C44.519,49.2677036 42.59075,51.3988286 40.020125,51.9298286 L40.020125,51.9298286 L40.020125,52.2468286 C40.020125,52.9370786 39.460375,53.4968286 38.770125,53.4968286 C38.079875,53.4968286 37.520125,52.9370786 37.520125,52.2468286 L37.520125,52.2468286 L37.520125,51.9299536 C34.949375,51.3989536 33.021125,49.2678286 33.021125,46.7254536 C33.021125,46.0352036 33.580875,45.4754536 34.271125,45.4754536 C34.961375,45.4754536 35.521125,46.0352036 35.521125,46.7254536 C35.521125,48.2875786 36.978625,49.5584536 38.770125,49.5584536 C40.561625,49.5584536 42.019,48.2874536 42.019,46.7253286 C42.019,45.1632036 40.561625,43.8922036 38.770125,43.8922036 C35.600125,43.8922036 33.021125,41.4998286 33.021125,38.5592036 C33.021125,36.0168286 34.949375,33.8855786 37.520125,33.3545786 L37.520125,33.3545786 L37.520125,33.2292036 C37.520125,32.5389536 38.079875,31.9792036 38.770125,31.9792036 Z M21.26775,34.8459536 C21.756,34.3579536 22.54725,34.3579536 23.035375,34.8459536 C23.5235,35.3342036 23.5235,36.1257036 23.035375,36.6138286 L23.035375,36.6138286 L15.146625,44.5025786 C14.9025,44.7465786 14.582625,44.8687036 14.26275,44.8687036 C13.942875,44.8687036 13.623,44.7465786 13.378875,44.5025786 L13.378875,44.5025786 L9.529625,40.6533286 C9.0415,40.1650786 9.0415,39.3735786 9.529625,38.8854536 C10.018,38.3974536 10.80925,38.3974536 11.2975,38.8854536 L11.2975,38.8854536 L14.262875,41.8508286 Z M41.75,22.7382036 C42.07875,22.7382036 42.40125,22.8719536 42.633625,23.1044536 C42.86625,23.3369536 43,23.6594536 43,23.9882036 C43,24.3169536 42.866125,24.6394536 42.633625,24.8718286 C42.40125,25.1043286 42.07875,25.2382036 41.75,25.2382036 C41.42125,25.2382036 41.09875,25.1043286 40.86625,24.8718286 C40.633625,24.6394536 40.5,24.3169536 40.5,23.9882036 C40.5,23.6594536 40.63375,23.3370786 40.86625,23.1044536 C41.09875,22.8718286 41.42125,22.7382036 41.75,22.7382036 Z M43.277,4.10045355 C40.65725,1.96432855 36.854375,1.96157855 34.232625,4.09257855 C32.96025,5.12707855 31.165625,5.26882855 29.756875,4.45345355 C28.89,3.95170355 28.221625,4.48107855 28.037625,4.65557855 C27.853625,4.82995355 27.288875,5.46820355 27.744,6.36157855 L27.744,6.36157855 L31.4765,13.6884536 L46.02375,13.6884536 L49.75625,6.36157855 C50.21125,5.46820355 49.6465,4.82995355 49.4625,4.65557855 C49.2785,4.48107855 48.6105,3.95107855 47.743125,4.45357855 C46.334625,5.26895355 44.54,5.12695355 43.277,4.10045355 Z" id="Combined-Shape" fill="#10418F"></path>
    </g>
</svg>