<?xml version="1.0" encoding="UTF-8"?>
<svg width="64px" height="64px" viewBox="0 0 64 64" version="1.1" xmlns="http://www.w3.org/2000/svg" xmlns:xlink="http://www.w3.org/1999/xlink">
    <!-- Generator: Sketch 63.1 (92452) - https://sketch.com -->
    <title>ikony/ladowanie</title>
    <desc>Created with Sketch.</desc>
    <defs>
        <polygon id="path-1" points="0 0 35.922 0 35.922 42.5889 0 42.5889"></polygon>
    </defs>
    <g id="ikony/ladowanie" stroke="none" stroke-width="1" fill="none" fill-rule="evenodd">
        <g id="Group-10" transform="translate(14.000000, 1.000000)">
            <path d="M19.5554,52 L15.5554,52 C13.9014,52 12.5554,50.654 12.5554,49 L12.5554,42 L14.5554,42 L14.5554,49 C14.5554,49.552 15.0034,50 15.5554,50 L19.5554,50 C20.1074,50 20.5554,49.552 20.5554,49 L20.5554,42 L22.5554,42 L22.5554,49 C22.5554,50.654 21.2094,52 19.5554,52" id="Fill-6" fill="#FFC02B"></path>
            <path d="M17.5554,61 C17.0024,61 16.5554,60.553 16.5554,60 L16.5554,51 C16.5554,50.447 17.0024,50 17.5554,50 C18.1084,50 18.5554,50.447 18.5554,51 L18.5554,60 C18.5554,60.553 18.1084,61 17.5554,61" id="Fill-8" fill="#FFC02B"></path>
            <path d="M16.4197,38.7148 L19.5027,38.7148 C20.1927,38.7148 20.7527,38.1538 20.7527,37.4648 C20.7527,36.7748 20.1927,36.2148 19.5027,36.2148 L16.4197,36.2148 C15.7297,36.2148 15.1697,36.7748 15.1697,37.4648 C15.1697,38.1538 15.7297,38.7148 16.4197,38.7148" id="Fill-1" fill="#10418F"></path>
            <g id="Group-5">
                <mask id="mask-2" fill="white">
                    <use xlink:href="#path-1"></use>
                </mask>
                <g id="Clip-4"></g>
                <path d="M33.4226,36.9209 C33.4226,38.6679 32.0006,40.0889 30.2546,40.0889 L5.6676,40.0889 C3.9216,40.0889 2.4996,38.6679 2.4996,36.9209 L2.4996,34.8409 L33.4226,34.8409 L33.4226,36.9209 Z M33.4226,1.2499 L33.4226,32.3409 L2.4996,32.3409 L2.4996,1.2499 C2.4996,0.5599 1.9406,-0.0001 1.2496,-0.0001 C0.5596,-0.0001 -0.0004,0.5599 -0.0004,1.2499 L-0.0004,36.9209 C-0.0004,40.0519 2.5376,42.5889 5.6676,42.5889 L30.2546,42.5889 C33.3846,42.5889 35.9226,40.0509 35.9226,36.9209 L35.9226,1.2499 C35.9226,0.5599 35.3626,-0.0001 34.6726,-0.0001 C33.9826,-0.0001 33.4226,0.5599 33.4226,1.2499 L33.4226,1.2499 Z" id="Fill-3" fill="#10418F" mask="url(#mask-2)"></path>
            </g>
        </g>
    </g>
</svg>