<?xml version="1.0" encoding="UTF-8"?>
<svg width="64px" height="64px" viewBox="0 0 64 64" version="1.1" xmlns="http://www.w3.org/2000/svg" xmlns:xlink="http://www.w3.org/1999/xlink">
    <!-- Generator: Sketch 63.1 (92452) - https://sketch.com -->
    <title>ikony/obudowa</title>
    <desc>Created with Sketch.</desc>
    <g id="ikony/obudowa" stroke="none" stroke-width="1" fill="none" fill-rule="evenodd">
        <path d="M47.4226,58.332 C47.4226,60.079 46.0006,61.5 44.2546,61.5 L19.6676,61.5 C17.9216,61.5 16.4996,60.079 16.4996,58.332 L16.4996,5.668 C16.4996,3.922 17.9216,2.5 19.6676,2.5 L44.2546,2.5 C46.0006,2.5 47.4226,3.922 47.4226,5.668 L47.4226,58.332 Z M44.2546,0 L19.6676,0 C16.5426,0 13.9996,2.542 13.9996,5.668 L13.9996,58.332 C13.9996,61.458 16.5426,64 19.6676,64 L44.2546,64 C47.3796,64 49.9226,61.458 49.9226,58.332 L49.9226,5.668 C49.9226,2.542 47.3796,0 44.2546,0 L44.2546,0 Z" id="Fill-5" fill="#FFC02B"></path>
        <path d="M33.5027,57.626 C34.1927,57.626 34.7527,58.186 34.7527,58.876 C34.7527,59.566 34.1927,60.126 33.5027,60.126 L30.4197,60.126 C29.7297,60.126 29.1697,59.566 29.1697,58.876 C29.1697,58.186 29.7297,57.626 30.4197,57.626 L33.5027,57.626 Z M47.422,53.752 L47.422,56.252 L16.555,56.252 L16.555,53.752 L47.422,53.752 Z M19.7947,6.4971 C20.4847,6.4971 21.0447,7.0571 21.0447,7.7471 C21.0447,8.4371 20.4847,8.9971 19.7947,8.9971 L19.7947,8.9971 L16.5557,8.9971 L16.5557,6.4971 Z M47.4227,6.4971 L47.4227,8.9971 L31.0447,8.9971 C30.3547,8.9971 29.7947,8.4371 29.7947,7.7471 C29.7947,7.0571 30.3547,6.4971 31.0447,6.4971 L31.0447,6.4971 L47.4227,6.4971 Z M25.951,6.8625 C26.009,6.9195 26.061,6.9855 26.106,7.0525 C26.151,7.1215 26.19,7.1945 26.221,7.2685 C26.253,7.3435 26.276,7.4225 26.293,7.5025 C26.308,7.5835 26.317,7.6655 26.317,7.7485 C26.317,7.8295 26.308,7.9105 26.293,7.9915 C26.276,8.0715 26.253,8.1505 26.221,8.2255 C26.19,8.2995 26.151,8.3735 26.106,8.4415 C26.061,8.5085 26.009,8.5725 25.951,8.6315 C25.719,8.8645 25.396,8.9965 25.067,8.9965 C24.986,8.9965 24.904,8.9895 24.824,8.9725 C24.744,8.9565 24.665,8.9325 24.589,8.9015 C24.513,8.8705 24.441,8.8315 24.374,8.7865 C24.305,8.7405 24.241,8.6895 24.183,8.6315 C24.126,8.5725 24.074,8.5085 24.029,8.4415 C23.984,8.3735 23.945,8.2995 23.914,8.2255 C23.883,8.1505 23.857,8.0715 23.843,7.9915 C23.826,7.9105 23.817,7.8295 23.817,7.7485 C23.817,7.6655 23.826,7.5835 23.843,7.5025 C23.857,7.4225 23.883,7.3435 23.914,7.2685 C23.945,7.1945 23.984,7.1215 24.029,7.0525 C24.074,6.9855 24.126,6.9195 24.183,6.8625 C24.241,6.8055 24.305,6.7525 24.374,6.7085 C24.441,6.6635 24.513,6.6245 24.589,6.5925 C24.665,6.5615 24.744,6.5385 24.824,6.5215 C25.23,6.4405 25.661,6.5725 25.951,6.8625 Z" id="Combined-Shape" fill="#10418F"></path>
    </g>
</svg>