<?xml version="1.0" encoding="UTF-8"?>
<svg width="64px" height="64px" viewBox="0 0 64 64" version="1.1" xmlns="http://www.w3.org/2000/svg" xmlns:xlink="http://www.w3.org/1999/xlink">
    <!-- Generator: Sketch 63.1 (92452) - https://sketch.com -->
    <title>ikony/oszczedności</title>
    <desc>Created with Sketch.</desc>
    <g id="ikony/oszczedności" stroke="none" stroke-width="1" fill="none" fill-rule="evenodd">
        <path d="M55.099125,15.14725 C55.481,15.14725 55.841875,15.322375 56.078875,15.621875 C56.315875,15.921375 56.402875,16.31275 56.315125,16.6845 L56.315125,16.6845 L54.18025,25.72875 C55.7565,27.45725 57.02475,29.455 57.9075,31.61475 L57.9075,31.61475 L60.811125,31.978375 C62.629125,32.205875 64,33.75925 64,35.591375 L64,35.591375 L64,41.8935 C64,43.72575 62.629,45.279125 60.811,45.506625 L60.811,45.506625 L58.212625,45.832 C57.079125,48.99475 55.163875,51.810375 52.625875,54.0425 L52.625875,54.0425 L52.625875,60.3755 C52.625875,62.374125 50.999875,64.000125 49.001375,64.000125 L49.001375,64.000125 L41.7505,64.000125 C39.751875,64.000125 38.125875,62.374125 38.125875,60.3755 L38.125875,60.3755 L38.125875,58.99225 L30.124125,58.99225 L30.124125,60.3755 C30.124125,62.374125 28.498125,64.000125 26.4995,64.000125 L26.4995,64.000125 L19.248625,64.000125 C17.250125,64.000125 15.624125,62.374125 15.624125,60.3755 L15.624125,60.3755 L15.624125,56.2245 C9.59175,52.650125 5.875,46.16475 5.875,39.121125 C5.875,38.320875 5.923875,37.532 6.016375,36.75625 L6.016375,36.75625 L5.5625,36.75625 C2.495375,36.75625 0,34.261 0,31.19375 C0,28.1265 2.495375,25.63125 5.5625,25.63125 C6.25275,25.63125 6.8125,26.190875 6.8125,26.88125 C6.8125,27.571625 6.25275,28.13125 5.5625,28.13125 C3.87375,28.13125 2.5,29.505125 2.5,31.19375 C2.5,32.882375 3.87375,34.25625 5.5625,34.25625 L5.5625,34.25625 L6.478375,34.25625 C8.654,25.643375 16.467125,19.25 25.746125,19.25 L25.746125,19.25 L27.3125,19.25 C28.00275,19.25 28.5625,19.809625 28.5625,20.5 C28.5625,21.190375 28.00275,21.75 27.3125,21.75 L27.3125,21.75 L25.746125,21.75 C16.167625,21.75 8.375,29.542625 8.375,39.121125 C8.375,45.498375 11.860375,51.35225 17.470625,54.39825 C17.873375,54.616875 18.12425,55.038375 18.12425,55.49675 L18.12425,55.49675 L18.12425,60.375375 C18.12425,60.9955 18.62875,61.5 19.24875,61.5 L19.24875,61.5 L26.49975,61.5 C27.119875,61.5 27.624375,60.9955 27.624375,60.375375 L27.624375,60.375375 L27.624375,57.742125 C27.624375,57.05175 28.184125,56.492125 28.874375,56.492125 L28.874375,56.492125 L39.376125,56.492125 C40.066375,56.492125 40.626125,57.05175 40.626125,57.742125 L40.626125,57.742125 L40.626125,60.375375 C40.626125,60.9955 41.130625,61.5 41.75075,61.5 L41.75075,61.5 L49.001625,61.5 C49.621625,61.5 50.126125,60.9955 50.126125,60.375375 L50.126125,60.375375 L50.126125,53.466125 C50.126125,53.094 50.292,52.741125 50.578625,52.503625 C53.179,50.349125 55.083,47.51775 56.085125,44.315875 C56.231375,43.8485 56.637,43.509625 57.122875,43.448875 L57.122875,43.448875 L60.50075,43.026 C61.0705,42.954625 61.50025,42.46775 61.50025,41.8935 L61.50025,41.8935 L61.50025,35.591375 C61.50025,35.017125 61.070625,34.53025 60.50075,34.458875 L60.50075,34.458875 L56.8555,34.0025 C56.39,33.94425 55.996125,33.63 55.836,33.189 C54.99975,30.8875 53.710625,28.83375 52.07975,27.122 C51.96,27.03625 51.858125,26.93025 51.776375,26.8105 C49.539125,24.577625 46.70075,22.968625 43.518875,22.216 C42.847,22.057125 42.43125,21.38375 42.590125,20.711875 C42.749,20.039875 43.422375,19.62425 44.09425,19.783125 C45.02575,20.0035 45.939125,20.294375 46.827625,20.6475 C48.083875,17.377 51.27775,15.14725 54.821625,15.14725 L54.821625,15.14725 Z M13.385125,42.51575 C14.029625,42.2685 14.7525,42.590875 14.999625,43.23575 C15.906375,45.602375 17.6025,47.634 19.775375,48.956375 C20.365,49.31525 20.552375,50.08425 20.1935,50.674 C19.958125,51.06075 19.54625,51.274375 19.124375,51.274375 C18.903,51.274375 18.678875,51.2155 18.475875,51.092 C15.8325,49.4835 13.768875,47.011125 12.665125,44.13025 C12.418125,43.4855 12.7405,42.76275 13.385125,42.51575 Z M12.99225,37.871125 C13.6825,37.871125 14.24225,38.43075 14.24225,39.121125 L14.24225,39.121125 L14.2423992,39.171875 C14.246625,39.86225 13.690375,40.425375 13.000125,40.42975 L13.000125,40.42975 C12.3055,40.42975 11.746625,39.875125 11.742375,39.1875 L11.742375,39.1875 L11.74225,39.121125 C11.74225,38.43075 12.302,37.871125 12.99225,37.871125 Z M48.875125,31.375 C49.203875,31.375 49.526375,31.50875 49.75875,31.74125 C49.99125,31.97375 50.125125,32.29625 50.125125,32.625 C50.125125,32.95375 49.99125,33.27625 49.75875,33.50875 C49.526375,33.74125 49.203875,33.875 48.875125,33.875 C48.546375,33.875 48.224,33.74125 47.991375,33.50875 C47.75875,33.27625 47.625125,32.95375 47.625125,32.625 C47.625125,32.29625 47.758875,31.97375 47.991375,31.74125 C48.223875,31.50875 48.546375,31.375 48.875125,31.375 Z M36.65525,18.5 C39.550125,18.5 41.90525,20.855125 41.90525,23.75 C41.90525,24.75775 41.61925,25.699625 41.125,26.5 L41.125,26.5 L42.25,26.5 C42.940375,26.5 43.5,27.059625 43.5,27.75 C43.5,28.440375 42.94025,29 42.25,29 L42.25,29 L26,29 C25.30975,29 24.75,28.440375 24.75,27.75 C24.75,27.059625 25.30975,26.5 26,26.5 L26,26.5 L32.185375,26.5 C31.691125,25.699625 31.405125,24.75775 31.40525,23.75 C31.40525,20.855125 33.760375,18.5 36.65525,18.5 Z M36.65525,21 C35.138875,21 33.90525,22.233625 33.90525,23.75 C33.90525,25.266375 35.138875,26.5 36.65525,26.5 C38.1715,26.5 39.40525,25.266375 39.40525,23.75 C39.40525,22.233625 38.171625,21 36.65525,21 Z M53.48325,17.799 C51.474375,18.26 49.789875,19.7365 49.09925,21.720875 C50.14975,22.301125 51.1485,22.976875 52.081,23.739625 L52.081,23.739625 Z M26.5,6.0065 C29.394875,6.0065 31.75,8.361625 31.75,11.2565 C31.75,14.151375 29.394875,16.5065 26.5,16.5065 C23.605125,16.5065 21.25,14.151375 21.25,11.2565 C21.25,8.361625 23.605125,6.0065 26.5,6.0065 Z M36.65525,7.291625 C37.345625,7.291625 37.90525,7.851375 37.90525,8.541625 L37.90525,8.541625 L37.90525,13.49975 C37.90525,14.190125 37.3455,14.74975 36.65525,14.74975 C35.965,14.74975 35.40525,14.190125 35.40525,13.49975 L35.40525,13.49975 L35.40525,8.541625 C35.40525,7.85125 35.965,7.291625 36.65525,7.291625 Z M26.5,8.5065 C24.983625,8.5065 23.75,9.740125 23.75,11.2565 C23.75,12.772875 24.983625,14.0065 26.5,14.0065 C28.016375,14.0065 29.25,12.772875 29.25,11.2565 C29.25,9.740125 28.016375,8.5065 26.5,8.5065 Z M36.655125,2.75625 C36.983875,2.75625 37.306375,2.89 37.53875,3.1225 C37.77125,3.35625 37.905125,3.6775 37.905125,4.00625 C37.905125,4.335 37.77125,4.6575 37.53875,4.89 C37.306375,5.1225 36.983875,5.25625 36.655125,5.25625 C36.32625,5.25625 36.003875,5.1225 35.771375,4.89 C35.53875,4.6575 35.405125,4.33625 35.405125,4.00625 C35.405125,3.6775 35.538875,3.355 35.771375,3.1225 C36.003875,2.89 36.32625,2.75625 36.655125,2.75625 Z M26.5,0 C27.190375,0 27.75,0.559625 27.75,1.25 L27.75,1.25 L27.75,3.375 C27.75,4.065375 27.19025,4.625 26.5,4.625 C25.80975,4.625 25.25,4.065375 25.25,3.375 L25.25,3.375 L25.25,1.25 C25.25,0.559625 25.80975,0 26.5,0 Z" id="Combined-Shape" fill="#10418F"></path>
    </g>
</svg>