<?xml version="1.0" encoding="UTF-8"?>
<svg width="84px" height="64px" viewBox="0 0 84 64" version="1.1" xmlns="http://www.w3.org/2000/svg" xmlns:xlink="http://www.w3.org/1999/xlink">
    <!-- Generator: Sketch 63.1 (92452) - https://sketch.com -->
    <title>proces_krok5</title>
    <desc>Created with Sketch.</desc>
    <g id="proces_krok5" stroke="none" stroke-width="1" fill="none" fill-rule="evenodd">
        <g id="ikony/pękniecie-copy-6" transform="translate(24.000000, 0.000000)" fill="#10418F">
            <path d="M30.254325,-4.99999996e-05 C33.379325,-4.99999996e-05 35.922325,2.54245 35.922325,5.66795 L35.922325,5.66795 L35.922325,58.332075 C35.922325,61.457575 33.379325,63.99995 30.254325,63.99995 L30.254325,63.99995 L5.66795,63.99995 C2.54295,63.99995 7.50000003e-05,61.457575 7.50000003e-05,58.332075 L7.50000003e-05,58.332075 L7.50000003e-05,5.66795 C7.50000003e-05,2.54245 2.54295,-4.99999996e-05 5.66795,-4.99999996e-05 L5.66795,-4.99999996e-05 Z M33.422325,56.25145 L2.500075,56.25145 L2.500075,58.332075 C2.500075,60.078575 3.92145,61.49995 5.66795,61.49995 L5.66795,61.49995 L30.254325,61.49995 C32.00095,61.49995 33.422325,60.078575 33.422325,58.332075 L33.422325,58.332075 L33.422325,56.25145 Z M19.5028375,57.6254875 C20.1933375,57.6254875 20.7528375,58.1851125 20.7528375,58.8754875 C20.7528375,59.5658625 20.1933375,60.1254875 19.5028375,60.1254875 L19.5028375,60.1254875 L16.4194625,60.1254875 C15.7290875,60.1254875 15.1694625,59.5658625 15.1694625,58.8754875 C15.1694625,58.1851125 15.7290875,57.6254875 16.4194625,57.6254875 L16.4194625,57.6254875 Z M30.254325,2.49995 L5.66795,2.49995 C3.92145,2.49995 2.500075,3.92145 2.500075,5.66795 L2.500075,5.66795 L2.500075,6.497075 L5.79495,6.497075 C6.485325,6.497075 7.04495,7.0567 7.04495,7.747075 C7.04495,8.437075 6.485325,8.997075 5.79495,8.997075 L5.79495,8.997075 L2.500075,8.997075 L2.500075,53.75145 L33.422325,53.75145 L33.422325,8.997075 L17.04495,8.997075 C16.354575,8.997075 15.79495,8.437075 15.79495,7.747075 C15.79495,7.0567 16.354575,6.497075 17.04495,6.497075 L17.04495,6.497075 L33.422325,6.497075 L33.422325,5.66795 C33.422325,3.92145 32.00095,2.49995 30.254325,2.49995 L30.254325,2.49995 Z M10.82375,6.5215375 C11.23,6.4399125 11.661125,6.5722875 11.95125,6.8622875 C12.00875,6.9199125 12.061,6.9849125 12.106,7.0527875 C12.151375,7.1210375 12.19,7.1939125 12.22125,7.2685375 C12.2525,7.3437875 12.276375,7.4224125 12.2925,7.5024125 C12.308625,7.5840375 12.317375,7.6650375 12.317375,7.7475375 C12.317375,7.8286625 12.308625,7.9101625 12.2925,7.9911625 C12.276375,8.0712875 12.2525,8.1499125 12.22125,8.2251625 C12.19,8.2997875 12.151375,8.3725375 12.106,8.4414125 C12.061,8.5087875 12.00875,8.5722875 11.95125,8.6314125 C11.71875,8.8637875 11.396,8.9960375 11.067375,8.9960375 C10.986375,8.9960375 10.903875,8.9887875 10.82375,8.9726625 C10.743625,8.9560375 10.665,8.9326625 10.588875,8.9014125 C10.51375,8.8701625 10.441375,8.8310375 10.3735,8.7861625 C10.30525,8.7402875 10.24125,8.6889125 10.183625,8.6314125 C10.126,8.5722875 10.07375,8.5087875 10.028875,8.4414125 C9.983875,8.3725375 9.944875,8.2997875 9.913625,8.2251625 C9.882375,8.1499125 9.8575,8.0712875 9.84225,7.9911625 C9.82625,7.9101625 9.817375,7.8286625 9.817375,7.7475375 C9.817375,7.6650375 9.82625,7.5840375 9.84225,7.5024125 C9.8575,7.4224125 9.882375,7.3437875 9.913625,7.2685375 C9.944875,7.1939125 9.983875,7.1210375 10.028875,7.0527875 C10.07375,6.9849125 10.126,6.9199125 10.183625,6.8622875 C10.24125,6.8051625 10.30525,6.7524125 10.3735,6.7075375 C10.441375,6.6626625 10.51375,6.6235375 10.588875,6.5922875 C10.665,6.5610375 10.743625,6.5376625 10.82375,6.5215375 Z" id="Combined-Shape"></path>
        </g>
    </g>
</svg>