<?xml version="1.0" encoding="UTF-8"?>
<svg width="84px" height="64px" viewBox="0 0 84 64" version="1.1" xmlns="http://www.w3.org/2000/svg" xmlns:xlink="http://www.w3.org/1999/xlink">
    <!-- Generator: Sketch 63.1 (92452) - https://sketch.com -->
    <title>proces_krok3</title>
    <desc>Created with Sketch.</desc>
    <defs>
        <polygon id="path-1" points="0.779 0.9158 37.838 0.9158 37.838 49.9998 0.779 49.9998"></polygon>
    </defs>
    <g id="proces_krok3" stroke="none" stroke-width="1" fill="none" fill-rule="evenodd">
        <g id="Group-10-Copy" transform="translate(14.000000, -1.000000)">
            <path d="M19.4395,51.5838 C19.2675,51.5838 19.0955,51.5488 18.9345,51.4778 L16.6575,50.4718 C6.5485,45.9978 0.0115,35.8958 0.0005,24.7348 L0.0005,11.3818 C0.0005,10.9278 0.2465,10.5088 0.6435,10.2888 L18.9055,0.1568 C19.2775,-0.0502 19.7295,-0.0522 20.1055,0.1488 L38.9025,10.2878 C39.3065,10.5068 39.5585,10.9288 39.5585,11.3888 L39.5585,18.4058 L37.0585,18.4058 L37.0585,12.1348 L19.5205,2.6748 L2.5005,12.1178 L2.5005,24.7338 C2.5095,34.9058 8.4635,44.1108 17.6685,48.1858 L19.4425,48.9688 L21.5585,48.0428 L22.5585,50.3348 L19.9405,51.4798 C19.7805,51.5488 19.6105,51.5838 19.4395,51.5838" id="Fill-1" fill="#10418F" opacity="0.301548549"></path>
            <g id="Group-5" transform="translate(19.000000, 15.470700)">
                <mask id="mask-2" fill="white">
                    <use xlink:href="#path-1"></use>
                </mask>
                <g id="Clip-4"></g>
                <path d="M19.041,0.9158 L0.779,11.0478 L0.779,24.3998 C0.79,35.0688 7.035,44.7208 16.691,48.9938 L18.968,49.9998 L21.589,48.8538 L21.596,48.8518 C31.434,44.6718 37.836,34.9258 37.838,24.1238 L37.838,11.0558 L19.041,0.9158 Z M19.059,3.7658 L35.338,12.5468 L35.338,24.1228 C35.336,33.9488 29.558,42.7518 20.618,46.5508 C20.599,46.5588 20.578,46.5668 20.558,46.5768 L18.974,47.2698 L17.703,46.7088 C8.951,42.8348 3.289,34.0768 3.279,24.3998 L3.279,12.5198 L19.059,3.7658 L19.059,3.7658 Z" id="Fill-3" fill="#10418F" mask="url(#mask-2)"></path>
            </g>
            <path d="M38.3086,49.0506 C37.6186,49.0506 37.0586,48.4906 37.0586,47.8006 L37.0586,35.2506 C37.0586,34.5606 37.6186,34.0006 38.3086,34.0006 C38.9986,34.0006 39.5586,34.5606 39.5586,35.2506 L39.5586,47.8006 C39.5586,48.4906 38.9986,49.0506 38.3086,49.0506" id="Fill-6" fill="#10418F"></path>
            <path d="M44.584,42.7752 L32.033,42.7752 C31.343,42.7752 30.783,42.2152 30.783,41.5252 C30.783,40.8352 31.343,40.2752 32.033,40.2752 L44.584,40.2752 C45.274,40.2752 45.834,40.8352 45.834,41.5252 C45.834,42.2152 45.274,42.7752 44.584,42.7752" id="Fill-8" fill="#10418F"></path>
        </g>
    </g>
</svg>