<?xml version="1.0" encoding="UTF-8"?>
<svg width="84px" height="64px" viewBox="0 0 84 64" version="1.1" xmlns="http://www.w3.org/2000/svg" xmlns:xlink="http://www.w3.org/1999/xlink">
    <!-- Generator: Sketch 63.1 (92452) - https://sketch.com -->
    <title>proces_krok1</title>
    <desc>Created with Sketch.</desc>
    <g id="proces_krok1" stroke="none" stroke-width="1" fill="none" fill-rule="evenodd">
        <path d="M62,0 C64.06775,0 65.75,1.68225 65.75,3.75 L65.75,3.75 L65.75,5.929 C73.823875,20.840125 74,20.53225 74,21.248625 L74,21.248625 L74,23.75 C74,25.893875 72.727125,27.932625 70.75,29.0775 L70.75,29.0775 L70.75,62.75 C70.75,63.44025 70.19025,64 69.5,64 L69.5,64 L14.5,64 C13.80975,64 13.25,63.44025 13.25,62.75 L13.25,62.75 L13.25,29.0775 C11.25275,27.931625 10,25.916625 10,23.75 L10,23.75 L10.0009732,21.1680569 C10.0206208,20.5508368 10.42276,20.38468 18.25,5.929 L18.25,5.929 L18.25,3.75 C18.25,1.68225 19.93225,0 22,0 L22,0 Z M35.75,50.75 L23.25,50.75 L23.25,61.5 L35.75,61.5 L35.75,50.75 Z M62.0615,27.410125 C60.92475,28.97775 59.08,30 57,30 C54.957625,30 53.14125,29.01525 52,27.495625 C50.85875,29.01525 49.042375,30 47,30 C44.957625,30 43.14125,29.01525 42,27.495625 C40.85875,29.01525 39.042375,30 37,30 C34.957625,30 33.14125,29.01525 32,27.495625 C30.85875,29.01525 29.042375,30 27,30 C24.92,30 23.07525,28.97775 21.9385,27.410125 C21.714375,27.69175 21.464625,27.9605 21.18725,28.21175 C19.933125,29.34825 18.270125,30 16.625,30 C16.331625,30 16.03975,29.97825 15.75,29.938875 L15.75,29.938875 L15.75,61.5 L20.75,61.5 L20.75,36.25 C20.75,35.55975 21.30975,35 22,35 L22,35 L37,35 C37.69025,35 38.25,35.55975 38.25,36.25 L38.25,36.25 L38.25,61.5 L68.25,61.5 L68.25,29.939375 C67.959625,29.979 67.66775,30 67.375,30 C65.729875,30 64.066875,29.34825 62.81275,28.21175 C62.535375,27.960375 62.285625,27.69175 62.0615,27.410125 Z M62,53.25 C62.69,53.25 63.25,53.81 63.25,54.5 C63.25,55.19 62.69,55.75 62,55.75 C61.31,55.75 60.75,55.19 60.75,54.5 C60.75,53.81 61.31,53.25 62,53.25 Z M57,53.25 C57.69025,53.25 58.25,53.80975 58.25,54.5 C58.25,55.19025 57.69025,55.75 57,55.75 L57,55.75 L47,55.75 C46.30975,55.75 45.75,55.19025 45.75,54.5 C45.75,53.80975 46.30975,53.25 47,53.25 L47,53.25 Z M62,35 C62.69025,35 63.25,35.55975 63.25,36.25 L63.25,36.25 L63.25,48.25 L64.5,48.25 C65.19025,48.25 65.75,48.80975 65.75,49.5 C65.75,50.19025 65.19025,50.75 64.5,50.75 L64.5,50.75 L44.5,50.75 C43.80975,50.75 43.25,50.19025 43.25,49.5 C43.25,48.80975 43.80975,48.25 44.5,48.25 L44.5,48.25 L45.75,48.25 L45.75,36.25 C45.75,35.55975 46.30975,35 47,35 L47,35 Z M35.75,37.5 L23.25,37.5 L23.25,48.25 L35.75,48.25 L35.75,37.5 Z M60.75,37.5 L48.25,37.5 L48.25,48.25 L60.75,48.25 L60.75,37.5 Z M60.75,22.5 L53.25,22.5 L53.25,23.75 C53.25,25.81775 54.93225,27.5 57,27.5 C59.06775,27.5 60.75,25.81775 60.75,23.75 L60.75,23.75 L60.75,22.5 Z M50.75,22.5 L43.25,22.5 L43.25,23.75 C43.25,25.81775 44.93225,27.5 47,27.5 C49.06775,27.5 50.75,25.81775 50.75,23.75 L50.75,23.75 L50.75,22.5 Z M40.75,22.5 L33.25,22.5 L33.25,23.75 C33.25,25.81775 34.93225,27.5 37,27.5 C39.06775,27.5 40.75,25.81775 40.75,23.75 L40.75,23.75 L40.75,22.5 Z M30.75,22.5 L23.25,22.5 L23.25,23.75 C23.25,25.81775 24.93225,27.5 27,27.5 C29.06775,27.5 30.75,25.81775 30.75,23.75 L30.75,23.75 L30.75,22.5 Z M20.75,22.5 L12.5,22.5 L12.5,23.75 C12.5,25.154 13.501375,26.523375 14.99175,27.15725 C15.51675,27.381875 16.08075,27.5 16.625,27.5 C18.783875,27.5 20.75,25.712625 20.75,23.75 L20.75,23.75 L20.75,22.5 Z M71.5,22.5 L63.25,22.5 L63.25,23.75 C63.25,25.712625 65.216125,27.5 67.375,27.5 C67.892,27.5 68.41025,27.398125 68.91575,27.196875 C70.461375,26.578625 71.5,25.1935 71.5,23.75 L71.5,23.75 L71.5,22.5 Z M63.761,7.5 L58.734375,7.5 L62.901,20 L70.636,20 L63.761,7.5 Z M56.099,7.5 L50.975625,7.5 L53.058875,20 L60.265625,20 L56.099,7.5 Z M48.441125,7.5 L43.25,7.5 L43.25,20 L50.5245,20 L48.441125,7.5 Z M40.75,7.5 L35.559,7.5 L33.475625,20 L40.75,20 L40.75,7.5 Z M33.024375,7.5 L27.900875,7.5 L23.73425,20 L30.941,20 L33.024375,7.5 Z M25.265625,7.5 L20.239,7.5 L13.364,20 L21.099,20 L25.265625,7.5 Z M62,2.5 L22,2.5 C21.31075,2.5 20.75,3.06075 20.75,3.75 L20.75,3.75 L20.75,5 L20.75,5 L63.25,5 L63.25,3.75 C63.25,3.06075 62.68925,2.5 62,2.5 L62,2.5 Z" id="sklep-copy" fill="#10418F" fill-rule="nonzero"></path>
    </g>
</svg>