<?xml version="1.0" encoding="UTF-8"?>
<svg width="84px" height="64px" viewBox="0 0 84 64" version="1.1" xmlns="http://www.w3.org/2000/svg" xmlns:xlink="http://www.w3.org/1999/xlink">
    <!-- Generator: Sketch 63.1 (92452) - https://sketch.com -->
    <title>proces_krok6</title>
    <desc>Created with Sketch.</desc>
    <g id="proces_krok6" stroke="none" stroke-width="1" fill="none" fill-rule="evenodd">
        <g id="laptop-(1)" fill="#10418F" fill-rule="nonzero">
            <path d="M74.1615431,0.0326497462 C75.4620102,0.0326497462 76.5199594,1.09059898 76.5199594,2.39106599 L76.5199594,2.39106599 L76.5199594,44.6732995 L83.0356142,57.5249543 L83.0356142,57.5249543 L83.0679188,57.5967513 L83.0679188,57.5967513 L83.0897056,57.6513299 L83.0897056,57.6513299 L83.1015635,57.6834924 C83.115533,57.7241015 83.1273909,57.7656853 83.1369746,57.8082437 L83.1369746,57.8082437 L83.1405482,57.8218883 C83.1504569,57.8681827 83.1574416,57.9154518 83.1618274,57.9636954 L83.1618274,57.9636954 L83.1636142,58.0000812 C83.1652386,58.0250964 83.1675127,58.0501117 83.1675127,58.0757766 L83.1675127,58.0757766 L83.1675127,61.1662944 C83.1675127,62.7109036 81.911066,63.9673503 80.3664569,63.9673503 L80.3664569,63.9673503 L2.80105584,63.9673503 C1.2564467,63.9673503 -5.54223334e-13,62.7109036 -5.54223334e-13,61.1662944 L-5.54223334e-13,61.1662944 L-5.54223334e-13,58.0757766 C-5.54223334e-13,58.0501117 0.00227411167,58.0250964 0.00389847716,57.9997563 C0.00454822335,57.987736 0.00454822335,57.9755533 0.00568527919,57.963533 C0.010071066,57.9152893 0.0170558376,57.8680203 0.026964467,57.8215635 C0.0279390863,57.8171777 0.0294010152,57.8127919 0.0303756345,57.8084061 C0.0399593909,57.7658477 0.0519796954,57.7241015 0.065786802,57.6833299 L0.065786802,57.6833299 L0.0776446701,57.6510051 C0.0914517766,57.6142944 0.106720812,57.5783959 0.12377665,57.5434721 L0.12377665,57.5434721 L0.131736041,57.5247919 L6.64722843,44.6729746 L6.64722843,2.39106599 C6.64722843,1.09059898 7.70517766,0.0326497462 9.00564467,0.0326497462 L9.00564467,0.0326497462 Z M80.7309645,59.2938883 L2.43654822,59.2938883 L2.43654822,61.166132 C2.43654822,61.367066 2.60012183,61.5306396 2.80105584,61.5306396 L2.80105584,61.5306396 L80.3664569,61.5306396 C80.5673909,61.5306396 80.7309645,61.367066 80.7309645,61.166132 L80.7309645,61.166132 L80.7309645,59.2938883 Z M74.5535025,46.1824975 L8.61384772,46.1824975 L3.2017868,56.8573401 L29.9679188,56.8573401 L31.3114315,51.985868 C31.5848122,50.9943553 32.4942944,50.3017259 33.5230051,50.3017259 L33.5230051,50.3017259 L49.6441827,50.3017259 C50.6728934,50.3017259 51.5822132,50.9943553 51.8557563,51.9860305 L51.8557563,51.9860305 L53.199269,56.8573401 L79.9655635,56.8573401 L74.5535025,46.1824975 Z M49.5358376,52.7384365 L33.6316751,52.7384365 L32.4957563,56.8575025 L50.6717563,56.8575025 L49.5358376,52.7384365 Z M74.0835736,2.46952284 L9.08393909,2.46952284 L9.08393909,43.7461117 L74.0835736,43.7461117 L74.0835736,2.46952284 Z M70.2663147,25.1380305 C70.9392893,25.1380305 71.4847513,25.6836548 71.4847513,26.3563046 L71.4847513,26.3563046 L71.4847513,39.2365482 C71.4847513,40.2901117 70.627736,41.1469645 69.574335,41.1469645 L69.574335,41.1469645 L13.5933401,41.1469645 C12.5397766,41.1469645 11.6829239,40.2899492 11.6829239,39.2365482 L11.6829239,39.2365482 L11.6829239,26.3563046 C11.6829239,25.6833299 12.2282234,25.1380305 12.901198,25.1380305 C13.5741726,25.1380305 14.1194721,25.6833299 14.1194721,26.3563046 L14.1194721,26.3563046 L14.1194721,38.7104162 L69.0480406,38.7104162 L69.0480406,26.3563046 C69.0480406,25.6833299 69.5933401,25.1380305 70.2663147,25.1380305 Z M69.5741726,5.06850761 C70.627736,5.06850761 71.4845888,5.92519797 71.4845888,6.97892386 L71.4845888,6.97892386 L71.4845888,19.8591675 C71.4845888,20.5321421 70.9392893,21.0774416 70.2663147,21.0774416 C69.5933401,21.0774416 69.0480406,20.5321421 69.0480406,19.8591675 L69.0480406,19.8591675 L69.0480406,7.50505584 L14.1194721,7.50505584 L14.1194721,19.8591675 C14.1194721,20.5321421 13.5741726,21.0774416 12.901198,21.0774416 C12.2282234,21.0774416 11.6829239,20.5321421 11.6829239,19.8591675 L11.6829239,19.8591675 L11.6829239,6.97892386 C11.6829239,5.92536041 12.5399391,5.06850761 13.5933401,5.06850761 L13.5933401,5.06850761 Z" id="Combined-Shape"></path>
        </g>
    </g>
</svg>