<?xml version="1.0" encoding="UTF-8"?>
<svg width="84px" height="64px" viewBox="0 0 84 64" version="1.1" xmlns="http://www.w3.org/2000/svg" xmlns:xlink="http://www.w3.org/1999/xlink">
    <!-- Generator: Sketch 63.1 (92452) - https://sketch.com -->
    <title>proces_krok4</title>
    <desc>Created with Sketch.</desc>
    <g id="proces_krok4" stroke="none" stroke-width="1" fill="none" fill-rule="evenodd">
        <g id="mail-(3)" transform="translate(13.000000, 7.000000)" fill="#10418F" fill-rule="nonzero">
            <path d="M57.7279015,16.0527376 L49.3286405,10.1974513 L49.3286405,1.64471365 C49.2444297,0.797486526 48.5831198,0.117488541 47.728763,0 L10.9323471,0 C10.0781179,0.117614466 9.41668043,0.797486526 9.33246964,1.64471365 L9.33246964,10.1315922 L0.599938097,16.0526117 C0.254035889,16.3004332 0.0349602379,16.6848839 0,17.1052234 L0,48.3552864 C0.113556977,49.2129653 0.797450682,49.8880522 1.66648054,50 L56.9946296,50 C57.7279015,50 57.994569,49.1447136 57.994569,48.3552864 L57.994569,17.1053493 C57.994569,16.7105727 58.061172,16.3157961 57.7279015,16.0527376 Z M49.3286405,13.3552864 L55.0614816,17.2368156 L49.3286405,21.5131214 L49.3286405,13.3552864 Z M11.9987619,2.6315922 L46.6622206,2.6315922 L46.6622206,23.5527376 L29.3304913,36.4475142 L11.9987619,23.5527376 L11.9987619,2.6315922 L11.9987619,2.6315922 Z M9.33246964,13.2895532 L9.33246964,21.5791064 L3.59962858,17.2369415 L9.33246964,13.2895532 Z M2.6664199,19.9342669 L21.3313592,33.8816552 L2.6664199,46.315922 L2.6664199,19.9342669 Z M5.86617481,47.3685337 L23.5977778,35.5922279 L28.3306795,39.1448396 C28.5986229,39.3492167 28.9253863,39.4644386 29.2638882,39.4737571 C29.5305557,39.4737571 29.6638895,39.3421649 29.9304294,39.1448396 L34.8632679,35.3947766 L52.7949353,47.3685337 L5.86617481,47.3685337 Z M55.3281491,45.8554123 L37.063211,33.750063 L55.3281491,19.9342669 L55.3281491,45.8554123 Z" id="Shape"></path>
            <path d="M18.3846256,12 L24.6153744,12 C25.3801054,12 26,11.3284525 26,10.5 C26,9.67154752 25.3801054,9 24.6153744,9 L18.3846256,9 C17.6198946,9 17,9.67154752 17,10.5 C17,11.3284525 17.6198946,12 18.3846256,12 Z" id="Path"></path>
            <path d="M18.3333333,17 L39.6666667,17 C40.4030689,17 41,16.3284525 41,15.5 C41,14.6715475 40.4030689,14 39.6666667,14 L18.3333333,14 C17.5969311,14 17,14.6715475 17,15.5 C17,16.3284525 17.5969311,17 18.3333333,17 Z" id="Path"></path>
            <path d="M41,21.5 C41,20.6715475 40.4030657,20 39.6666596,20 L18.3333404,20 C17.5969343,20 17,20.6715475 17,21.5 C17,22.3284525 17.5969343,23 18.3333404,23 L39.6667872,23 C40.4030657,23 41,22.3284525 41,21.5 Z" id="Path"></path>
        </g>
    </g>
</svg>