<?xml version="1.0" encoding="UTF-8"?>
<svg width="64px" height="64px" viewBox="0 0 64 64" version="1.1" xmlns="http://www.w3.org/2000/svg" xmlns:xlink="http://www.w3.org/1999/xlink">
    <!-- Generator: Sketch 63.1 (92452) - https://sketch.com -->
    <title>ikony/przycisk</title>
    <desc>Created with Sketch.</desc>
    <g id="ikony/przycisk" stroke="none" stroke-width="1" fill="none" fill-rule="evenodd">
        <path d="M44.254375,0 C47.379375,0 49.922375,2.5425 49.922375,5.668 L49.922375,5.668 L49.922375,58.332 C49.922375,61.4575 47.379375,64 44.254375,64 L44.254375,64 L19.668,64 C16.543,64 14,61.4575 14,58.332 L14,58.332 L14,5.668 C14,2.5425 16.543,0 19.668,0 L19.668,0 Z M47.422375,56.251375 L16.5,56.251375 L16.5,58.332 C16.5,60.078625 17.921375,61.5 19.668,61.5 L19.668,61.5 L44.254375,61.5 C46.001,61.5 47.422375,60.078625 47.422375,58.332 L47.422375,58.332 L47.422375,56.251375 Z M44.254375,2.5 L19.668,2.5 C17.921375,2.5 16.5,3.921375 16.5,5.668 L16.5,5.668 L16.5,6.497 L19.794875,6.497 C20.485375,6.497 21.044875,7.056625 21.044875,7.747 C21.044875,8.437 20.485375,8.997 19.794875,8.997 L19.794875,8.997 L16.5,8.997 L16.5,53.751375 L47.422375,53.751375 L47.422375,8.997 L31.044875,8.997 C30.3545,8.997 29.794875,8.437 29.794875,7.747 C29.794875,7.056625 30.3545,6.497 31.044875,6.497 L31.044875,6.497 L47.422375,6.497 L47.422375,5.668 C47.422375,3.921375 46.001,2.5 44.254375,2.5 L44.254375,2.5 Z M25.9511375,6.862325 C26.0087625,6.91995 26.0610125,6.984825 26.1060125,7.0527 C26.1513875,7.121075 26.1898875,7.193825 26.2211375,7.268575 C26.2523875,7.3437 26.2763875,7.422325 26.2925125,7.50245 C26.3086375,7.58395 26.3173875,7.665075 26.3173875,7.747575 C26.3173875,7.828575 26.3086375,7.910075 26.2925125,7.9912 C26.2763875,8.071325 26.2523875,8.149825 26.2211375,8.225075 C26.1898875,8.299825 26.1513875,8.372575 26.1060125,8.44145 C26.0610125,8.508825 26.0087625,8.5722 25.9511375,8.631325 C25.7187625,8.8637 25.3960125,8.996075 25.0673875,8.996075 C24.9863875,8.996075 24.9037625,8.9887 24.8237625,8.9727 C24.7436375,8.956075 24.6650125,8.932575 24.5888875,8.901325 C24.5136375,8.870075 24.4413875,8.831075 24.3735125,8.786075 C24.3051375,8.7402 24.2412625,8.68895 24.1836375,8.631325 C24.1260125,8.5722 24.0737625,8.508825 24.0287625,8.44145 C23.9838875,8.372575 23.9448875,8.299825 23.9136375,8.225075 C23.8823875,8.149825 23.8573875,8.071325 23.8422625,7.9912 C23.8261375,7.910075 23.8173875,7.828575 23.8173875,7.747575 C23.8173875,7.665075 23.8261375,7.58395 23.8422625,7.50245 C23.8573875,7.422325 23.8823875,7.3437 23.9136375,7.268575 C23.9448875,7.193825 23.9838875,7.121075 24.0287625,7.0527 C24.0737625,6.984825 24.1260125,6.91995 24.1836375,6.862325 C24.2412625,6.8052 24.3051375,6.75245 24.3735125,6.70745 C24.4413875,6.662575 24.5136375,6.623575 24.5888875,6.592325 C24.6650125,6.561075 24.7436375,6.537575 24.8237625,6.52145 C25.2300125,6.43995 25.6611375,6.5722 25.9511375,6.862325 Z" id="Combined-Shape-Copy" fill="#10418F"></path>
        <path d="M30.4194375,60.1254625 C29.7290625,60.1254625 29.1694375,59.5658375 29.1694375,58.8754625 C29.1694375,58.1850875 29.7290625,57.6254625 30.4194375,57.6254625 L33.5029375,57.6254625 C34.1933125,57.6254625 34.7529375,58.1850875 34.7529375,58.8754625 C34.7529375,59.5658375 34.1933125,60.1254625 33.5029375,60.1254625 L30.4194375,60.1254625 Z" id="Fill-6" fill="#FFC02B"></path>
    </g>
</svg>