<?xml version="1.0" encoding="UTF-8"?>
<svg width="64px" height="64px" viewBox="0 0 64 64" version="1.1" xmlns="http://www.w3.org/2000/svg" xmlns:xlink="http://www.w3.org/1999/xlink">
    <!-- Generator: Sketch 63.1 (92452) - https://sketch.com -->
    <title>ikony/rachunek</title>
    <desc>Created with Sketch.</desc>
    <g id="ikony/rachunek" stroke="none" stroke-width="1" fill="none" fill-rule="evenodd">
        <path d="M51.0360546,1.42108547e-14 C51.7249591,1.42108547e-14 52.2836179,0.558658869 52.2836179,1.24756335 L52.2836179,1.24756335 L52.2836179,22.4817154 C52.2836179,23.1706199 51.7249591,23.7292788 51.0360546,23.7292788 C50.3471501,23.7292788 49.7884912,23.1706199 49.7884912,22.4817154 L49.7884912,22.4817154 L49.7884912,2.49512671 L20.8394074,2.49512671 L20.8394074,9.1194386 C20.8394074,9.80834308 20.2807485,10.3670019 19.5918441,10.3670019 L19.5918441,10.3670019 L12.9131384,10.3670019 L12.9131384,39.1964444 L15.5034542,39.1964444 C16.1923587,39.1964444 16.7510175,39.7551033 16.7510175,40.4440078 L16.7510175,40.4440078 L16.7510175,42.7952904 L25.2579025,42.7952904 L25.3647494,42.7998556 C25.4356942,42.8059363 25.5060845,42.8180793 25.5750331,42.8362105 L25.5750331,42.8362105 L36.5210292,45.7118441 C39.2264951,46.4225809 40.701614,49.3126862 39.8502768,51.9386823 C39.6293333,52.6265887 39.273653,53.2353996 38.8185419,53.7407875 C39.9749084,53.9048421 41.1441248,53.868039 42.2830253,53.6328733 C42.8017622,53.5254581 43.3140117,53.3769981 43.8159064,53.1876179 L43.8159064,53.1876179 L49.7884912,50.9351423 L49.7884912,33.6313138 C49.7884912,32.9424094 50.3471501,32.3837505 51.0360546,32.3837505 C51.7249591,32.3837505 52.2836179,32.9424094 52.2836179,33.6313138 L52.2836179,33.6313138 L52.2836179,49.9951033 L53.6712827,49.4718752 C54.8609591,49.0230019 56.1509396,49.0710331 57.3039376,49.6066121 C58.4569357,50.142191 59.3258635,51.0972008 59.7504094,52.2956101 C60.5915166,54.6693489 59.4215517,57.2686472 57.0868616,58.2133021 L57.0868616,58.2133021 L45.3701209,62.9532943 C43.8490916,63.5685926 42.2503392,63.8787368 40.641731,63.8787368 C39.6426823,63.8787368 38.6397661,63.7590955 37.6493255,63.5185653 L37.6493255,63.5185653 L21.2923977,59.5460741 L16.7510175,59.5460741 L16.7510175,61.7946823 C16.7510175,62.4835867 16.1923587,63.0422456 15.5034542,63.0422456 L15.5034542,63.0422456 L4.36670565,63.0422456 C3.67780117,63.0422456 3.1191423,62.4835867 3.1191423,61.7946823 L3.1191423,61.7946823 L3.1191423,40.4440078 C3.1191423,39.7551033 3.67780117,39.1964444 4.36670565,39.1964444 L4.36670565,39.1964444 L10.4180117,39.1964444 L10.4180117,9.1194386 C10.4180117,8.79083041 10.5533723,8.46584016 10.7864172,8.23416764 L10.7864172,8.23416764 L18.7126862,0.362292398 C18.9437349,0.132865497 19.26623,1.42108547e-14 19.5918441,1.42108547e-14 L19.5918441,1.42108547e-14 Z M25.0965926,45.2902924 L16.7508928,45.2902924 L16.7508928,57.0508226 L21.441731,57.0508226 C21.5409123,57.0508226 21.6397193,57.0625497 21.7361559,57.0860039 L21.7361559,57.0860039 L38.2381754,61.0936764 C40.3129981,61.597692 42.4554386,61.4406238 44.4345731,60.6399376 L44.4345731,60.6399376 L56.1513138,55.8999454 C57.2445536,55.4576842 57.7923587,54.2404366 57.3985029,53.1288577 C56.9930448,51.9842183 55.6903392,51.3774035 54.5516881,51.8064405 C53.732039,52.1155867 47.327922,54.5304951 44.945575,55.4288655 C43.0697388,56.1362339 41.0960936,56.4678363 39.0912593,56.2828226 C37.3864639,56.1255049 35.7032515,55.6172476 34.0417466,55.2246394 C31.0401092,54.5135283 27.1319922,53.5923275 26.9008187,53.537809 L26.9008187,53.537809 L26.8990097,53.5373255 L26.8967018,53.5368109 C26.2192749,53.3771228 25.8038363,52.7053099 25.9619025,52.0347446 C26.1198441,51.3640546 26.7921559,50.9493645 27.462347,51.1066823 L27.462347,51.1066823 L34.7360156,52.8212086 C35.7282027,53.0054737 36.7518285,52.5201715 37.259462,51.6523665 C37.820117,50.6941131 37.7039688,49.4403119 36.8774581,48.6690682 C36.6011228,48.4111969 36.2636569,48.2243119 35.8875166,48.1255049 L35.8875166,48.1255049 L25.0965926,45.2902924 Z M5.61426901,41.6915712 L5.61426901,60.5469942 L14.2558908,60.5469942 L14.2557661,41.6921949 L5.61426901,41.6915712 Z M42.326191,36.3068382 C43.0152203,36.3068382 43.5737544,36.8654971 43.5737544,37.5544016 C43.5737544,38.243306 43.0150955,38.8019649 42.326191,38.8019649 L42.326191,38.8019649 L21.3163509,38.8019649 C20.6274464,38.8019649 20.0687875,38.243306 20.0687875,37.5544016 C20.0687875,36.8654971 20.6274464,36.3068382 21.3163509,36.3068382 L21.3163509,36.3068382 Z M42.326191,29.7202027 C43.0152203,29.7202027 43.5737544,30.2788616 43.5737544,30.9677661 C43.5737544,31.6566706 43.0150955,32.2153294 42.326191,32.2153294 L42.326191,32.2153294 L21.3163509,32.2153294 C20.6274464,32.2153294 20.0687875,31.6566706 20.0687875,30.9677661 C20.0687875,30.2788616 20.6274464,29.7202027 21.3163509,29.7202027 L21.3163509,29.7202027 Z M50.3431579,27.0035088 C50.9100507,26.624499 51.6941442,26.7855595 52.0735283,27.3490838 C52.4501676,27.9134815 52.2940975,28.7024405 51.7279532,29.0782066 C51.1636803,29.4528499 50.3747212,29.3010214 49.9988304,28.7337544 C49.6236881,28.1674854 49.7770136,27.3821442 50.3431579,27.0035088 Z M24.2858012,9.99423002 C24.9747057,9.99423002 25.5333645,10.5528889 25.5333645,11.2417934 L25.5333645,11.2417934 L25.5333645,11.9892086 L27.2552515,11.9892086 C27.9441559,11.9892086 28.5028148,12.5478674 28.5028148,13.2367719 C28.5028148,13.9256764 27.9441559,14.4843353 27.2552515,14.4843353 L27.2552515,14.4843353 L23.6519142,14.4843353 C23.051961,14.4843353 22.5639142,14.9723821 22.5639142,15.5723353 C22.5639142,16.1722885 23.051961,16.6603353 23.6519142,16.6603353 L23.6519142,16.6603353 L24.9196881,16.6603353 C26.8954542,16.6603353 28.5028148,18.2676959 28.5028148,20.243462 L28.5028148,20.243462 L28.5028148,20.3939181 C28.5028148,22.1604678 27.217575,23.631345 25.5333645,23.9233996 L25.5333645,23.9233996 L25.5333645,24.72446 C25.5333645,25.4133645 24.9747057,25.9720234 24.2858012,25.9720234 C23.5968967,25.9720234 23.0382378,25.4133645 23.0382378,24.72446 L23.0382378,24.72446 L23.0382378,23.9770448 L21.3163509,23.9770448 C20.6274464,23.9770448 20.0687875,23.418386 20.0687875,22.7294815 C20.0687875,22.040577 20.6274464,21.4819181 21.3163509,21.4819181 L21.3163509,21.4819181 L24.9196881,21.4819181 C25.5196413,21.4819181 26.0076881,20.9938713 26.0076881,20.3939181 L26.0076881,20.3939181 L26.0076881,20.243462 C26.0076881,19.6435088 25.5196413,19.155462 24.9196881,19.155462 L24.9196881,19.155462 L23.6519142,19.155462 C21.6761481,19.155462 20.0687875,17.5481014 20.0687875,15.5723353 C20.0687875,13.8057856 21.3540273,12.3349084 23.0382378,12.0428538 L23.0382378,12.0428538 L23.0382378,11.2417934 C23.0382378,10.5528889 23.5968967,9.99423002 24.2858012,9.99423002 Z M42.326191,23.1334425 C43.0152203,23.1334425 43.5738791,23.6921014 43.5738791,24.3810058 C43.5738791,25.0699103 43.0152203,25.6285692 42.3263158,25.6285692 L42.3263158,25.6285692 L33.7175049,25.6285692 C33.0286004,25.6285692 32.4699415,25.0699103 32.4699415,24.3810058 C32.4699415,23.6921014 33.0286004,23.1334425 33.7175049,23.1334425 L33.7175049,23.1334425 Z M42.326191,16.5466823 C43.0152203,16.5466823 43.5738791,17.1053411 43.5738791,17.7942456 C43.5738791,18.4831501 43.0152203,19.041809 42.3263158,19.041809 L42.3263158,19.041809 L33.7175049,19.041809 C33.0286004,19.041809 32.4699415,18.4831501 32.4699415,17.7942456 C32.4699415,17.1053411 33.0286004,16.5466823 33.7175049,16.5466823 L33.7175049,16.5466823 Z M42.326191,9.95992203 C43.0152203,9.95992203 43.5738791,10.5185809 43.5738791,11.2074854 C43.5738791,11.8963899 43.0152203,12.4550487 42.3263158,12.4550487 L42.3263158,12.4550487 L33.7175049,12.4550487 C33.0286004,12.4550487 32.4699415,11.8963899 32.4699415,11.2074854 C32.4699415,10.5185809 33.0286004,9.95992203 33.7175049,9.95992203 L33.7175049,9.95992203 Z M18.3442807,4.24495906 L14.6922885,7.87187524 L18.3442807,7.87187524 L18.3442807,4.24495906 Z" id="Combined-Shape" fill="#10418F"></path>
    </g>
</svg>