<?xml version="1.0" encoding="UTF-8"?>
<svg width="64px" height="64px" viewBox="0 0 64 64" version="1.1" xmlns="http://www.w3.org/2000/svg" xmlns:xlink="http://www.w3.org/1999/xlink">
    <!-- Generator: Sketch 63.1 (92452) - https://sketch.com -->
    <title>ikony/serwis</title>
    <desc>Created with Sketch.</desc>
    <g id="ikony/serwis" stroke="none" stroke-width="1" fill="none" fill-rule="evenodd">
        <path d="M51.3981481,1.13686838e-13 C52.7612085,1.13686838e-13 54.1013645,0.218929243 55.3820663,0.650703185 C55.7894737,0.788130023 56.0974659,1.12536199 56.1968811,1.54349071 C56.2967836,1.9621066 56.1739766,2.40216511 55.8723196,2.708208 L55.8723196,2.708208 L50.7743664,7.8821847 L50.7743664,10.3963172 L53.5038987,13.2242899 L55.9834309,13.2242899 L61.1554581,8.01132697 C61.4595517,7.70430936 61.9020468,7.57711641 62.3230994,7.67506959 C62.7441521,7.77253548 63.0847953,8.0819897 63.2227095,8.49183373 C63.6544835,9.77253548 63.8732943,11.1126915 63.8732943,12.4757519 C63.8732943,19.3544069 58.2772904,24.9508981 51.3981481,24.9508981 C50.3001949,24.9508981 49.2163743,24.8085979 48.1661793,24.5278962 L48.1661793,24.5278962 L40.7782651,31.9158104 L42.6111112,33.5980716 L43.3786549,32.8300404 C43.8664718,32.342711 44.6559454,32.342711 45.1432748,32.8300404 C45.6306042,33.3173699 45.6306042,34.1073308 45.1432748,34.594173 L45.1432748,34.594173 L44.4512671,35.2861808 L61.6427876,51.0581106 C61.6559455,51.0702938 61.6691033,51.082477 61.6817739,51.0951476 C64.5989278,54.0137636 64.5989278,58.7627889 61.6817739,61.6814048 C58.7563353,64.6068435 54.0190059,64.6058689 51.0950293,61.6818923 C51.0828461,61.6697089 51.0706627,61.6575257 51.0589668,61.6448552 L51.0589668,61.6448552 L35.2568226,44.4801378 L34.5570176,45.1799429 C34.0692008,45.666785 33.279727,45.666785 32.7923976,45.1799429 C32.3050682,44.6926135 32.3050682,43.9026525 32.7923976,43.415323 L32.7923976,43.415323 L33.5653021,42.6429059 L31.8810916,40.8134712 L24.5287524,48.1658104 C25.5092592,51.7930034 24.8235867,55.5844264 22.6008772,58.6784809 C20.2285575,61.9801379 16.538499,63.8739 12.4751462,63.8739 C11.1125731,63.8739 9.77192982,63.6550891 8.49171537,63.2233153 C8.08187135,63.085401 7.77241712,62.7447577 7.67495124,62.3237051 C7.57699805,61.9021652 7.704191,61.4601573 8.01120861,61.1555765 L8.01120861,61.1555765 L13.2236842,55.9840365 L13.2236842,53.4908591 L10.3830409,50.6502159 L7.88986361,50.6502159 L2.71832352,55.8626915 C2.41374266,56.169709 1.97173496,56.296902 1.5501949,56.1989488 C1.12914227,56.1014829 0.788498963,55.7920287 0.650584827,55.3821846 C0.218810885,54.1019702 1.42108547e-13,52.7613269 1.42108547e-13,51.3987539 C1.42108547e-13,47.335401 1.89327482,43.6448552 5.19493177,41.2730228 C8.28898632,39.0503133 12.0808967,38.3646408 15.7080896,39.3451476 L15.7080896,39.3451476 L24.862573,30.1906642 L9.55116962,14.845635 L6.54044831,14.8446602 C6.10233912,14.8441729 5.69639373,14.6146407 5.47124759,14.2389097 L5.47124759,14.2389097 L0.178849934,5.41775965 C-0.115497045,4.92653158 -0.0380117583,4.29836397 0.366471735,3.89339318 L0.366471735,3.89339318 L3.89473684,0.365615497 C4.29922034,-0.0393552949 4.92738795,-0.116840706 5.41861602,0.177993571 L5.41861602,0.177993571 L14.2397661,5.47136595 C14.6154971,5.69651209 14.8455166,6.1029449 14.8455166,6.54105409 L14.8455166,6.54105409 L14.8455166,9.55274987 L30.1554581,24.8977791 L39.3450292,15.708208 C38.3640351,12.0810151 39.0487329,8.291054 41.2699806,5.19846147 C43.6432749,1.8948552 47.3347954,1.13686838e-13 51.3981481,1.13686838e-13 Z M42.6851852,37.0522626 L37.0224171,42.7140559 L52.8762184,59.9348162 C54.8274853,61.8670775 57.9736841,61.8612295 59.9171541,59.9177597 C61.8562378,57.9777011 61.8620857,54.8246798 59.9351852,52.8773113 L59.9351852,52.8773113 L42.6851852,37.0522626 Z M51.3976608,2.49524506 C48.1476608,2.49524506 45.1949318,4.01083967 43.2962963,6.65411452 C41.3952242,9.30080059 40.9000975,12.5844264 41.9376218,15.6638611 C42.088694,16.1131788 41.9727096,16.6087928 41.6374269,16.9440754 C41.619883,16.9616193 17.0126706,41.5693191 16.9439571,41.6375453 C16.6086744,41.9728279 16.1125731,42.0892997 15.6637428,41.9377402 C12.5838207,40.9002159 9.29873291,41.3968045 6.65058483,43.2993386 C4.00925929,45.1965122 2.49463941,48.1482665 2.49463941,51.3982665 C2.49463941,51.7632762 2.51413258,52.1263367 2.55311894,52.4859858 L2.55311894,52.4859858 L6.4844054,48.5235101 C6.71881095,48.2876428 7.03752434,48.1546018 7.37037037,48.1546018 L7.37037037,48.1546018 L10.8996102,48.1546018 C11.2305068,48.1546018 11.5477583,48.2861808 11.7816764,48.5200989 L11.7816764,48.5200989 L15.3533138,52.0917363 C15.5872319,52.3256544 15.7188109,52.6429059 15.7188109,52.9738026 L15.7188109,52.9738026 L15.7188109,56.5030423 C15.7188109,56.8358884 15.58577,57.1546018 15.3499025,57.3885199 L15.3499025,57.3885199 L11.3874269,61.3202938 C11.747076,61.3587928 12.1101364,61.3787733 12.4751462,61.3787733 C15.7246589,61.3787733 18.6769006,59.8636661 20.574074,57.2228279 C22.4766081,54.5741924 22.9727096,51.2895921 21.9356725,48.2101574 C21.784113,47.7608396 21.9005848,47.2647383 22.2358674,46.9294556 C27.1983431,41.9664927 40.6749512,28.4903718 46.9293373,22.2359858 C47.2646199,21.9011905 47.7607212,21.7852061 48.2095517,21.9357909 C49.2339181,22.2808201 50.3070176,22.4557714 51.3981481,22.4557714 C56.9010721,22.4557714 61.3781676,17.9786759 61.3781676,12.4757519 C61.3781676,12.1107422 61.3586745,11.7476816 61.3196881,11.3880326 L61.3196881,11.3880326 L57.3884015,15.3500208 C57.1539961,15.5863757 56.8352826,15.7189293 56.502924,15.7189293 L56.502924,15.7189293 L52.9736843,15.7189293 C52.6349903,15.7189293 52.3109162,15.5815023 52.0760234,15.3378376 L52.0760234,15.3378376 L48.6291423,11.7662002 C48.4044835,11.5337441 48.2792397,11.2233153 48.2792397,10.8997286 L48.2792397,10.8997286 L48.2792397,7.37048873 C48.2792397,7.04300335 48.4078947,6.72867589 48.6379142,6.49524506 L48.6379142,6.49524506 L52.5180312,2.55713593 C52.1476608,2.51620026 51.7738791,2.49524506 51.3976608,2.49524506 Z M43.3776803,43.4167851 C43.8635478,42.9289682 44.6539962,42.9275063 45.1418129,43.413861 L45.1418129,43.413861 L56.3869395,54.6229254 C56.8747564,55.1092802 56.8762184,55.8992411 56.3898635,56.3870579 C55.9025341,56.8758493 55.1125731,56.8758493 54.6252437,56.3899819 L54.6252437,56.3899819 L43.380117,45.1809176 C42.8923002,44.6945628 42.8908382,43.9050891 43.3776803,43.4167851 Z M20.6028265,42.0230229 C21.2914229,42.0230229 21.8503898,42.5819896 21.8503898,43.2705862 C21.8503898,43.9606447 21.2914229,44.5181496 20.6028265,44.5181496 C19.912768,44.5181496 19.3552631,43.9606447 19.3552631,43.2705862 C19.3552631,42.5819896 19.912768,42.0230229 20.6028265,42.0230229 Z M38.8601364,23.2491437 C39.3474659,22.7618143 40.1374268,22.7618143 40.6247563,23.2491437 C41.1120857,23.7364732 41.1120857,24.5264341 40.6247563,25.0132763 L40.6247563,25.0132763 L25.0131579,40.6248746 C24.5258285,41.1122041 23.7358674,41.1122041 23.2485379,40.6248746 C22.7616959,40.1375452 22.7616959,39.3475842 23.2485379,38.8607422 L23.2485379,38.8607422 Z M39.0121832,33.6814048 L33.6466862,39.0473893 L35.3308967,40.876824 L40.8450293,35.3636662 L39.0121832,33.6814048 Z M4.97027294,2.81883181 L2.81968805,4.96941657 L7.24756335,12.3622042 L10.0692008,12.3631788 C10.4005849,12.3631788 10.7178362,12.4825746 10.9517544,12.71698 L10.9517544,12.71698 L26.6267057,28.4265316 L28.3913256,26.6623991 L12.7149123,10.9504108 C12.4814815,10.7164927 12.3503899,10.3997285 12.3503899,10.0693192 L12.3503899,10.0693192 L12.3503899,7.24768171 L4.97027294,2.81883181 Z M43.2704679,19.3558689 C43.9605263,19.3558689 44.5180312,19.9133738 44.5180312,20.6029448 C44.5180312,21.2920287 43.9605263,21.8505082 43.2704679,21.8505082 C42.5818713,21.8505082 42.0229045,21.2920287 42.0229045,20.6029448 C42.0229045,19.9133738 42.5818713,19.3558689 43.2704679,19.3558689 Z" id="Combined-Shape" fill="#10418F"></path>
    </g>
</svg>