<?xml version="1.0" encoding="UTF-8"?>
<svg width="24px" height="24px" viewBox="0 0 24 24" version="1.1" xmlns="http://www.w3.org/2000/svg" xmlns:xlink="http://www.w3.org/1999/xlink">
    <!-- Generator: Sketch 63.1 (92452) - https://sketch.com -->
    <title>tick</title>
    <desc>Created with Sketch.</desc>
    <g id="tick" stroke="none" stroke-width="1" fill="none" fill-rule="evenodd">
        <g id="interface">
            <path d="M17.9925469,8.05490625 C17.623125,7.665375 17.0072344,7.64821875 16.6170938,8.01857812 L10.4056406,13.9093125 L7.44295313,10.8674531 C7.06771875,10.4824688 6.45248438,10.4740313 6.06717188,10.8493125 C5.6821875,11.2242188 5.67407813,11.8401094 6.04898438,12.2250938 L9.68142188,15.9545156 C9.87178125,16.1500781 10.1247656,16.2486563 10.3784063,16.2486563 C10.6190625,16.2486563 10.8597188,16.1597813 11.0481563,15.98175 L17.9562656,9.43040625 C18.3460781,9.06065625 18.3625781,8.44476562 17.9925469,8.05490625 Z" id="Path" fill="#10418F"></path>
            <path d="M12,0 C5.383125,0 0,5.383125 0,12 C0,18.616875 5.383125,24 12,24 C18.616875,24 24,18.616875 24,12 C24,5.383125 18.616875,0 12,0 Z M12,22.0540781 C6.45632813,22.0540781 1.94592187,17.5440469 1.94592187,12 C1.94592187,6.45632812 6.45628125,1.94592187 12,1.94592187 C17.544,1.94592187 22.0540781,6.45628125 22.0540781,12 C22.0540781,17.544 17.544,22.0540781 12,22.0540781 Z" id="Shape" fill="#FFC02B" fill-rule="nonzero"></path>
        </g>
    </g>
</svg>