<?xml version="1.0" encoding="UTF-8"?>
<svg width="64px" height="64px" viewBox="0 0 64 64" version="1.1" xmlns="http://www.w3.org/2000/svg" xmlns:xlink="http://www.w3.org/1999/xlink">
    <!-- Generator: Sketch 63.1 (92452) - https://sketch.com -->
    <title>ikony/wypadek</title>
    <desc>Created with Sketch.</desc>
    <g id="ikony/wypadek" stroke="none" stroke-width="1" fill="none" fill-rule="evenodd">
        <path d="M43.7331771,2.33335638 C46.5977604,2.33335638 48.9288437,4.67722357 48.9288437,7.55854388 L48.9288437,7.55854388 L48.9288437,56.1081689 C48.9288437,58.9894892 46.5977604,61.3333564 43.7331771,61.3333564 L43.7331771,61.3333564 L21.1956667,61.3333564 C18.3310833,61.3333564 16,58.9894892 16,56.1081689 L16,56.1081689 L16,7.55854388 C16,4.67722357 18.3310833,2.33335638 21.1956667,2.33335638 L21.1956667,2.33335638 Z M46.6371771,54.1900927 L18.2916667,54.1900927 L18.2916667,56.1081689 C18.2916667,57.7183388 19.5945937,59.0286689 21.1956667,59.0286689 L21.1956667,59.0286689 L43.7331771,59.0286689 C45.33425,59.0286689 46.6371771,57.7183388 46.6371771,56.1081689 L46.6371771,56.1081689 L46.6371771,54.1900927 Z M33.8806304,56.3333333 C34.4988582,56.3333333 35,56.7810333 35,57.3333333 C35,57.8856333 34.4988582,58.3333333 33.8806304,58.3333333 L31.1193696,58.3333333 C30.5011418,58.3333333 30,57.8856333 30,57.3333333 C30,56.7810333 30.5011418,56.3333333 31.1193696,56.3333333 L33.8806304,56.3333333 Z M43.7331771,4.63804388 L21.1956667,4.63804388 C19.5945937,4.63804388 18.2916667,5.94837396 18.2916667,7.55854388 L18.2916667,7.55854388 L18.2916667,8.32277826 L21.3119687,8.32277826 C21.9449271,8.32277826 22.4578021,8.83868255 22.4578021,9.47512201 C22.4578021,10.1112158 21.9449271,10.6274658 21.3119687,10.6274658 L21.3119687,10.6274658 L18.2916667,10.6274658 L18.2916667,51.8854052 L46.6371771,51.8854052 L46.6371771,10.6274658 L31.6244687,10.6274658 C30.991625,10.6274658 30.4786354,10.1112158 30.4786354,9.47512201 C30.4786354,8.83868255 30.991625,8.32277826 31.6244687,8.32277826 L31.6244687,8.32277826 L46.6371771,8.32277826 L46.6371771,7.55854388 C46.6371771,5.94837396 45.33425,4.63804388 43.7331771,4.63804388 L43.7331771,4.63804388 Z M32.5,19.3333333 C33.6989229,19.3333333 34.8160235,19.9838458 35.4153713,21.0309004 L35.4153713,21.0309004 L39.482845,28.1358809 L43.5503187,35.2407468 C44.1498938,36.2878014 44.1498938,37.5888263 43.5503187,38.6357663 C42.9509709,39.6828209 41.8338703,40.3333333 40.6349474,40.3333333 L40.6349474,40.3333333 L24.3650526,40.3333333 C23.1661297,40.3333333 22.0490291,39.6828209 21.4496813,38.6357663 C20.8501062,37.5888263 20.8501062,36.2878014 21.4496813,35.2407468 L21.4496813,35.2407468 L25.517155,28.1358809 L29.5846287,21.0309004 C30.1839765,19.9838458 31.3010771,19.3333333 32.5,19.3333333 Z M32.5,21.6254844 C32.1316863,21.6254844 31.7633727,21.8093149 31.5529078,22.1769759 L31.5529078,22.1769759 L27.4854341,29.2819564 L23.4179604,36.3868223 C22.9970305,37.1220298 23.5231928,38.0411823 24.3650526,38.0411823 L24.3650526,38.0411823 L40.6349474,38.0411823 C41.4768072,38.0411823 42.0029695,37.1220298 41.5820396,36.3868223 L41.5820396,36.3868223 L37.5145659,29.2819564 L33.4470922,22.1769759 C33.2366273,21.8093149 32.8683137,21.6254844 32.5,21.6254844 Z M32,34.3333333 C32.5522,34.3333333 33,34.7810333 33,35.3333333 C33,35.8855333 32.5522,36.3333333 32,36.3333333 C31.4477,36.3333333 31,35.8855333 31,35.3333333 C31,34.7810333 31.4477,34.3333333 32,34.3333333 Z M32,26.3333333 C32.5522,26.3333333 33,26.8151125 33,27.4092136 L33,32.257453 C33,32.8515541 32.5522,33.3333333 32,33.3333333 C31.4478,33.3333333 31,32.8515541 31,32.257453 L31,27.4092136 C31,26.8151125 31.4478,26.3333333 32,26.3333333 Z M26.707,9.62519471 C26.7531,9.67132546 26.7949,9.72326008 26.8309,9.7775963 C26.8672,9.83233278 26.898,9.89057161 26.923,9.95041149 C26.948,10.0105516 26.9672,10.0734935 26.9801,10.1376363 C26.993,10.2028798 27,10.2678231 27,10.3338671 C27,10.3987103 26.993,10.4639538 26.9801,10.5288971 C26.9672,10.5930399 26.948,10.6558818 26.923,10.7161219 C26.898,10.7759618 26.8672,10.8342006 26.8309,10.8893374 C26.7949,10.9432733 26.7531,10.9940071 26.707,11.0413387 C26.5211,11.2273627 26.2629,11.3333333 26,11.3333333 C25.9352,11.3333333 25.8691,11.3274294 25.8051,11.3146209 C25.741,11.301312 25.6781,11.2824994 25.6172,11.2574828 C25.557,11.2324661 25.4992,11.2012453 25.4449,11.1652213 C25.3902,11.1284968 25.3391,11.0874694 25.293,11.0413387 C25.2469,10.9940071 25.2051,10.9432733 25.1691,10.8893374 C25.1332,10.8342006 25.102,10.7759618 25.077,10.7161219 C25.052,10.6558818 25.032,10.5930399 25.0199,10.5288971 C25.007,10.4639538 25,10.3987103 25,10.3338671 C25,10.2678231 25.007,10.2028798 25.0199,10.1376363 C25.032,10.0734935 25.052,10.0105516 25.077,9.95041149 C25.102,9.89057161 25.1332,9.83233278 25.1691,9.7775963 C25.2051,9.72326008 25.2469,9.67132546 25.293,9.62519471 C25.3391,9.57946422 25.3902,9.53723608 25.4449,9.50121206 C25.4992,9.46528812 25.557,9.4340673 25.6172,9.40905063 C25.6781,9.38403395 25.741,9.36522141 25.8051,9.35231281 C26.1301,9.28706932 26.475,9.39293989 26.707,9.62519471 Z" id="Combined-Shape" fill="#10418F"></path>
    </g>
</svg>