<?xml version="1.0" encoding="UTF-8"?>
<svg width="64px" height="64px" viewBox="0 0 64 64" version="1.1" xmlns="http://www.w3.org/2000/svg" xmlns:xlink="http://www.w3.org/1999/xlink">
    <!-- Generator: Sketch 63.1 (92452) - https://sketch.com -->
    <title>ikony/zalanie</title>
    <desc>Created with Sketch.</desc>
    <g id="ikony/zalanie" stroke="none" stroke-width="1" fill="none" fill-rule="evenodd">
        <path d="M44.254325,-5e-05 C47.379325,-5e-05 49.922325,2.54245 49.922325,5.66795 L49.922325,5.66795 L49.922325,58.332075 C49.922325,61.457575 47.379325,63.99995 44.254325,63.99995 L44.254325,63.99995 L19.66795,63.99995 C16.54295,63.99995 14.000075,61.457575 14.000075,58.332075 L14.000075,58.332075 L14.000075,5.66795 C14.000075,2.54245 16.54295,-5e-05 19.66795,-5e-05 L19.66795,-5e-05 Z M47.422325,56.25145 L16.500075,56.25145 L16.500075,58.332075 C16.500075,60.078575 17.92145,61.49995 19.66795,61.49995 L19.66795,61.49995 L44.254325,61.49995 C46.00095,61.49995 47.422325,60.078575 47.422325,58.332075 L47.422325,58.332075 L47.422325,56.25145 Z M33.5028375,57.6254875 C34.1933375,57.6254875 34.7528375,58.1851125 34.7528375,58.8754875 C34.7528375,59.5658625 34.1933375,60.1254875 33.5028375,60.1254875 L33.5028375,60.1254875 L30.4194625,60.1254875 C29.7290875,60.1254875 29.1694625,59.5658625 29.1694625,58.8754875 C29.1694625,58.1851125 29.7290875,57.6254875 30.4194625,57.6254875 L30.4194625,57.6254875 Z M44.254325,2.49995 L19.66795,2.49995 C17.92145,2.49995 16.500075,3.92145 16.500075,5.66795 L16.500075,5.66795 L16.500075,6.497075 L19.79495,6.497075 C20.485325,6.497075 21.04495,7.0567 21.04495,7.747075 C21.04495,8.437075 20.485325,8.997075 19.79495,8.997075 L19.79495,8.997075 L16.500075,8.997075 L16.500075,53.75145 L47.422325,53.75145 L47.422325,8.997075 L31.04495,8.997075 C30.354575,8.997075 29.79495,8.437075 29.79495,7.747075 C29.79495,7.0567 30.354575,6.497075 31.04495,6.497075 L31.04495,6.497075 L47.422325,6.497075 L47.422325,5.66795 C47.422325,3.92145 46.00095,2.49995 44.254325,2.49995 L44.254325,2.49995 Z M31.9611375,21.6304375 L32.9110125,22.7405625 C34.4573875,24.5476875 39.5026375,30.7113125 39.5026375,34.1553125 C39.5026375,38.3136875 36.1196375,41.6968125 31.9612625,41.6968125 C27.8027625,41.6968125 24.4196375,38.3136875 24.4196375,34.1553125 C24.4196375,30.7140625 29.4650125,24.5484375 31.0113875,22.7406875 L31.0113875,22.7406875 L31.9611375,21.6304375 Z M31.9613875,25.5075625 C29.3836375,28.6924375 26.9196375,32.4508125 26.9196375,34.1553125 C26.9196375,36.9351875 29.1812625,39.1968125 31.9612625,39.1968125 C34.7410125,39.1968125 37.0026375,36.9351875 37.0026375,34.1553125 C37.0026375,32.4491875 34.5388875,28.6914375 31.9613875,25.5075625 Z M24.82375,6.5215375 C25.23,6.4399125 25.661125,6.5722875 25.95125,6.8622875 C26.00875,6.9199125 26.061,6.9849125 26.106,7.0527875 C26.151375,7.1210375 26.19,7.1939125 26.22125,7.2685375 C26.2525,7.3437875 26.276375,7.4224125 26.2925,7.5024125 C26.308625,7.5840375 26.317375,7.6650375 26.317375,7.7475375 C26.317375,7.8286625 26.308625,7.9101625 26.2925,7.9911625 C26.276375,8.0712875 26.2525,8.1499125 26.22125,8.2251625 C26.19,8.2997875 26.151375,8.3725375 26.106,8.4414125 C26.061,8.5087875 26.00875,8.5722875 25.95125,8.6314125 C25.71875,8.8637875 25.396,8.9960375 25.067375,8.9960375 C24.986375,8.9960375 24.903875,8.9887875 24.82375,8.9726625 C24.743625,8.9560375 24.665,8.9326625 24.588875,8.9014125 C24.51375,8.8701625 24.441375,8.8310375 24.3735,8.7861625 C24.30525,8.7402875 24.24125,8.6889125 24.183625,8.6314125 C24.126,8.5722875 24.07375,8.5087875 24.028875,8.4414125 C23.983875,8.3725375 23.944875,8.2997875 23.913625,8.2251625 C23.882375,8.1499125 23.8575,8.0712875 23.84225,7.9911625 C23.82625,7.9101625 23.817375,7.8286625 23.817375,7.7475375 C23.817375,7.6650375 23.82625,7.5840375 23.84225,7.5024125 C23.8575,7.4224125 23.882375,7.3437875 23.913625,7.2685375 C23.944875,7.1939125 23.983875,7.1210375 24.028875,7.0527875 C24.07375,6.9849125 24.126,6.9199125 24.183625,6.8622875 C24.24125,6.8051625 24.30525,6.7524125 24.3735,6.7075375 C24.441375,6.6626625 24.51375,6.6235375 24.588875,6.5922875 C24.665,6.5610375 24.743625,6.5376625 24.82375,6.5215375 Z" id="Combined-Shape" fill="#10418F"></path>
    </g>
</svg>